<svg width="40" height="40" viewBox="0 0 40 40" fill="none" xmlns="http://www.w3.org/2000/svg">
<circle cx="20" cy="20" r="20" fill="#E7EDF4"/>
<path d="M27.9587 15.6031C27.8864 15.4388 27.7306 15.3334 27.559 15.3334H22.3311L27.4906 6.71635C27.5766 6.57263 27.5819 6.39063 27.5043 6.24177C27.4266 6.09242 27.2784 6 27.1178 6H20.059C19.8918 6 19.7391 6.09986 19.6642 6.25807L13.0465 20.2581C12.9781 20.4023 12.9856 20.574 13.0659 20.7117C13.1467 20.8493 13.2883 20.9333 13.4414 20.9333H17.978L13.0346 33.3523C12.9503 33.5646 13.0253 33.811 13.211 33.9314C13.2825 33.9776 13.3619 34 13.4409 34C13.5675 34 13.6924 33.9426 13.7789 33.8344L27.8965 16.101C28.0072 15.9619 28.031 15.7678 27.9587 15.6031Z" fill="#252122"/>
</svg>
