<svg width="65" height="65" viewBox="0 0 65 65" fill="none" xmlns="http://www.w3.org/2000/svg">
<circle cx="32.5" cy="32.5" r="32.5" fill="#F9A542"/>
<path d="M36.3386 28.3035H49.2481C49.4488 28.3035 49.6413 28.2267 49.7832 28.09C49.9252 27.9534 50.0049 27.768 50.0049 27.5748C50.0007 26.4482 49.5327 25.3692 48.7035 24.5744C47.8743 23.7796 46.7517 23.3337 45.5816 23.3347H36.3386C35.8536 23.3353 35.3886 23.5211 35.0457 23.8515C34.7027 24.1818 34.5099 24.6296 34.5095 25.0966V26.5233C34.5037 26.797 34.5668 27.0679 34.6934 27.313C34.8201 27.558 35.0065 27.7699 35.2368 27.9304C35.5468 28.1761 35.9371 28.3083 36.3386 28.3035V28.3035ZM48.39 26.8461H36.3386C36.3134 26.8492 36.2879 26.8471 36.2636 26.84C36.2393 26.8328 36.2169 26.8208 36.1979 26.8046C36.1684 26.7795 36.137 26.7566 36.104 26.7361C36.0752 26.7085 36.053 26.6751 36.039 26.6384C36.0251 26.6016 36.0196 26.5623 36.023 26.5233V25.0966C36.0226 25.0566 36.0305 25.0169 36.0462 24.9798C36.0619 24.9427 36.0852 24.909 36.1145 24.8806C36.1439 24.8523 36.1788 24.8299 36.2173 24.8146C36.2558 24.7994 36.297 24.7917 36.3386 24.792H45.5816C46.2186 24.7915 46.8382 24.9922 47.3455 25.3632C47.8527 25.7342 48.2196 26.2551 48.39 26.8461V26.8461Z" fill="white"/>
<path d="M17.5021 43.7561H40.0216C40.1663 43.7561 40.3079 43.7161 40.4297 43.6409C40.5514 43.5658 40.6483 43.4586 40.7088 43.3321L41.7546 41.1461H57.7297C57.8369 41.1461 57.9428 41.1242 58.0405 41.0819C58.1382 41.0396 58.2254 40.9778 58.2965 40.9006C58.3675 40.8234 58.4207 40.7325 58.4525 40.634C58.4844 40.5355 58.4942 40.4316 58.4812 40.3292C57.1538 29.7637 49.8239 27.0043 49.5121 26.8928C49.3263 26.8334 49.1238 26.8457 48.9472 26.9271C48.7706 27.0085 48.6336 27.1526 48.565 27.3292C48.4964 27.5057 48.5016 27.701 48.5794 27.874C48.6573 28.047 48.8017 28.1842 48.9824 28.2568C49.2571 28.3574 55.3997 30.7175 56.8632 39.6888H41.2741C41.1295 39.6888 40.9879 39.7286 40.8662 39.8037C40.7444 39.8787 40.6475 39.9857 40.5869 40.1121L39.5411 42.2981H17.5043C17.3036 42.2981 17.1111 42.3749 16.9692 42.5115C16.8273 42.6482 16.7476 42.8335 16.7476 43.0267C16.7476 43.22 16.8273 43.4053 16.9692 43.542C17.1111 43.6786 17.3036 43.7554 17.5043 43.7554L17.5021 43.7561Z" fill="white"/>
<path d="M12.8012 32.2265C12.9578 32.2265 13.1106 32.1796 13.2384 32.0925C13.3662 32.0053 13.4628 31.8821 13.5148 31.7398C14.4329 29.334 15.8751 27.1451 17.7443 25.3203C18.5148 24.5362 19.35 23.8134 20.2416 23.1591C20.3208 23.1012 20.3872 23.0288 20.4373 22.9461C20.4873 22.8634 20.52 22.7721 20.5334 22.6772C20.5604 22.4857 20.5073 22.2917 20.3858 22.1379C20.2643 21.9841 20.0843 21.883 19.8854 21.857C19.6865 21.831 19.485 21.8821 19.3252 21.9991C18.3687 22.7 17.4728 23.4745 16.6463 24.3148C14.6291 26.2884 13.074 28.6549 12.0853 31.2552C12.045 31.3651 12.0327 31.4827 12.0493 31.5982C12.066 31.7136 12.1112 31.8235 12.1811 31.9187C12.251 32.0138 12.3436 32.0915 12.4511 32.145C12.5586 32.1986 12.6779 32.2265 12.7989 32.2265H12.8012Z" fill="white"/>
<path d="M29.6721 40.2979C30.3991 40.297 31.1235 40.2156 31.8311 40.0553C33.7171 39.6383 35.3868 38.5876 36.5404 37.0918C37.6091 35.5857 38.1611 33.7952 38.1189 31.9716C38.0767 30.148 37.4424 28.3829 36.3051 26.9241C36.2481 26.8434 36.1749 26.7745 36.0898 26.7216C36.0047 26.6686 35.9094 26.6327 35.8095 26.6159C35.7097 26.5991 35.6074 26.6018 35.5087 26.6237C35.4099 26.6457 35.3168 26.6866 35.2348 26.7439C35.1527 26.8012 35.0835 26.8738 35.0312 26.9573C34.9788 27.0409 34.9444 27.1337 34.9301 27.2303C34.9157 27.3269 34.9216 27.4253 34.9475 27.5197C34.9734 27.614 35.0186 27.7024 35.0807 27.7796C36.0315 28.9911 36.5646 30.4588 36.6054 31.9769C36.6461 33.4949 36.1923 34.9872 35.3077 36.2444C34.362 37.4488 33.0075 38.2956 31.48 38.6373C28.3289 39.3441 25.4176 38.2548 22.8288 35.3984C19.4112 31.6232 22.8704 25.8807 25.236 22.7926C25.4605 22.5 25.6026 22.1565 25.6485 21.7953C25.6943 21.4342 25.6423 21.0678 25.4976 20.7318C25.3529 20.3957 25.1203 20.1014 24.8225 19.8775C24.5247 19.6536 24.1719 19.5076 23.7982 19.4539C23.6382 19.4294 23.4743 19.4549 23.3305 19.5268C23.307 19.5384 23.2662 19.5617 23.2442 19.5756C23.1574 19.6188 23.0805 19.6783 23.0181 19.7506C22.9556 19.8229 22.9089 19.9066 22.8807 19.9966C22.8524 20.0867 22.8433 20.1813 22.8537 20.2748C22.8642 20.3683 22.894 20.4589 22.9415 20.5411C23.0138 20.67 23.1245 20.7753 23.2593 20.8433C23.3941 20.9113 23.547 20.939 23.6983 20.9229C23.7892 20.9536 23.8722 21.0026 23.942 21.0665C24.0118 21.1304 24.0667 21.2079 24.1031 21.2938C24.148 21.3967 24.164 21.5091 24.1496 21.6199C24.1351 21.7306 24.0906 21.8358 24.0207 21.9248C21.3841 25.3641 17.5769 31.8112 21.6898 36.3522C24.4747 39.433 27.3322 40.2979 29.6721 40.2979V40.2979Z" fill="white"/>
<path d="M17.3264 43.7561H20.8952C21.0371 43.7563 21.1761 43.7182 21.2965 43.6461C21.417 43.5739 21.5139 43.4707 21.5763 43.348C22.1684 42.1923 22.4753 40.9205 22.4731 39.6319C22.4713 37.3619 21.5341 35.1854 19.8672 33.5802C18.2004 31.975 15.9402 31.0722 13.5827 31.0701C11.9076 31.0645 10.2656 31.5193 8.84959 32.3812C7.43362 33.243 6.30249 34.476 5.58909 35.9354C5.50533 36.1037 5.49185 36.2965 5.55141 36.4741C5.61097 36.6517 5.73903 36.8006 5.9092 36.8899L8.52152 38.2598C8.61411 38.3086 8.71629 38.3383 8.82149 38.3468C8.9267 38.3554 9.03259 38.3426 9.13237 38.3094C9.23215 38.2762 9.32362 38.2233 9.40087 38.154C9.47813 38.0847 9.53948 38.0006 9.58098 37.9071C9.9185 37.1551 10.4778 36.5149 11.1895 36.066C11.9012 35.6171 12.7341 35.3791 13.585 35.3816C14.7543 35.3831 15.8753 35.8311 16.7021 36.6274C17.5289 37.4236 17.9939 38.503 17.9953 39.6289C17.9959 40.7082 17.5619 41.7457 16.7845 42.5232C16.6819 42.6263 16.613 42.7561 16.5864 42.8966C16.5597 43.0371 16.5766 43.182 16.6348 43.3134C16.693 43.4447 16.79 43.5567 16.9138 43.6354C17.0375 43.7141 17.1826 43.7561 17.3309 43.7561H17.3264ZM20.4071 42.2988H18.8066C19.2669 41.4787 19.5075 40.5611 19.5066 39.6289C19.5048 38.1166 18.8801 36.6667 17.7696 35.5973C16.659 34.5279 15.1533 33.9262 13.5827 33.9243C12.5764 33.9222 11.5865 34.1696 10.7082 34.6425C9.82985 35.1155 9.09272 35.7981 8.56768 36.6247L7.29254 35.9558C7.94105 34.9074 8.86238 34.0401 9.96551 33.4395C11.0687 32.8389 12.3154 32.5258 13.5827 32.5311C15.538 32.5334 17.4124 33.2824 18.7949 34.6137C20.1774 35.945 20.9551 37.7499 20.9573 39.6326C20.959 40.5476 20.772 41.4539 20.4071 42.2988V42.2988Z" fill="white"/>
<path d="M13.6367 45.3286C14.8073 45.3286 15.9516 44.9944 16.9249 44.3682C17.8982 43.742 18.6568 42.8519 19.1048 41.8106C19.5527 40.7693 19.6699 39.6234 19.4416 38.518C19.2132 37.4125 18.6495 36.3971 17.8218 35.6001C16.994 34.8031 15.9395 34.2603 14.7914 34.0404C13.6433 33.8205 12.4532 33.9334 11.3718 34.3647C10.2903 34.796 9.36592 35.5265 8.71557 36.4636C8.06523 37.4008 7.71811 38.5026 7.71811 39.6298C7.71991 41.1406 8.34406 42.5892 9.45362 43.6575C10.5632 44.7259 12.0675 45.3269 13.6367 45.3286V45.3286ZM13.6367 35.3882C14.5079 35.3882 15.3596 35.637 16.084 36.1031C16.8084 36.5691 17.3731 37.2316 17.7065 38.0066C18.0399 38.7816 18.1271 39.6345 17.9571 40.4572C17.7872 41.28 17.3676 42.0358 16.7516 42.629C16.1355 43.2222 15.3506 43.6261 14.4961 43.7898C13.6416 43.9534 12.7559 43.8694 11.951 43.5484C11.146 43.2274 10.458 42.6837 9.97401 41.9862C9.48997 41.2887 9.23162 40.4686 9.23162 39.6298C9.23282 38.5052 9.69731 37.427 10.5232 36.6318C11.349 35.8366 12.4688 35.3894 13.6367 35.3882V35.3882Z" fill="white"/>
<path d="M13.6366 42.5751C14.2415 42.5751 14.8329 42.4023 15.3359 42.0787C15.839 41.7551 16.231 41.2951 16.4625 40.7569C16.694 40.2187 16.7546 39.6266 16.6366 39.0552C16.5186 38.4839 16.2272 37.9591 15.7995 37.5472C15.3717 37.1353 14.8267 36.8548 14.2333 36.7412C13.64 36.6275 13.0249 36.6858 12.466 36.9088C11.9071 37.1317 11.4294 37.5092 11.0933 37.9935C10.7572 38.4779 10.5778 39.0473 10.5778 39.6298C10.5786 40.4107 10.9011 41.1594 11.4746 41.7116C12.048 42.2637 12.8256 42.5743 13.6366 42.5751V42.5751ZM13.6366 38.1419C13.9422 38.1419 14.241 38.2292 14.4951 38.3927C14.7492 38.5561 14.9473 38.7885 15.0642 39.0604C15.1812 39.3323 15.2118 39.6315 15.1522 39.9201C15.0925 40.2087 14.9454 40.4738 14.7293 40.6819C14.5131 40.89 14.2378 41.0317 13.938 41.0892C13.6383 41.1466 13.3276 41.1171 13.0452 41.0045C12.7628 40.8919 12.5215 40.7012 12.3517 40.4565C12.1819 40.2118 12.0913 39.9241 12.0913 39.6298C12.0917 39.2353 12.2546 38.8571 12.5443 38.5781C12.834 38.2992 13.2269 38.1423 13.6366 38.1419V38.1419Z" fill="white"/>
<path d="M48.7017 45.3351C50.1076 45.3337 51.467 44.8503 52.5363 43.9714C53.6056 43.0926 54.3149 41.8757 54.537 40.539C54.5564 40.4435 54.5557 40.3451 54.5349 40.2499C54.5141 40.1546 54.4737 40.0643 54.4161 39.9843C54.3584 39.9043 54.2848 39.8362 54.1993 39.7841C54.1139 39.732 54.0185 39.6969 53.9188 39.6808C53.8191 39.6648 53.717 39.6682 53.6186 39.6908C53.5203 39.7134 53.4276 39.7547 53.3462 39.8124C53.2647 39.87 53.196 39.9428 53.1442 40.0265C53.0925 40.1101 53.0586 40.2029 53.0447 40.2993C52.8783 41.2951 52.3489 42.2013 51.5515 42.8553C50.7541 43.5094 49.7409 43.8687 48.6934 43.8687C47.6459 43.8687 46.6326 43.5094 45.8352 42.8553C45.0378 42.2013 44.5085 41.2951 44.342 40.2993C44.3281 40.2029 44.2942 40.1101 44.2425 40.0265C44.1907 39.9428 44.122 39.87 44.0406 39.8124C43.9591 39.7547 43.8664 39.7134 43.7681 39.6908C43.6697 39.6682 43.5677 39.6648 43.4679 39.6808C43.3682 39.6969 43.2728 39.732 43.1874 39.7841C43.102 39.8362 43.0283 39.9043 42.9706 39.9843C42.913 40.0643 42.8726 40.1546 42.8518 40.2499C42.8311 40.3451 42.8303 40.4435 42.8497 40.539C43.0744 41.8775 43.7867 43.0952 44.859 43.974C45.9313 44.8528 47.2936 45.3353 48.7017 45.3351Z" fill="white"/>
<path d="M48.7016 42.5728C49.3193 42.5686 49.9214 42.3858 50.4298 42.0479C50.9381 41.7101 51.3292 41.2329 51.5523 40.6782C51.5966 40.5678 51.6122 40.4487 51.5979 40.3312C51.5836 40.2137 51.5398 40.1013 51.4703 40.0037C51.4008 39.9061 51.3077 39.8263 51.1989 39.7712C51.0902 39.7161 50.9692 39.6873 50.8463 39.6873H46.5562C46.4346 39.6873 46.3148 39.7155 46.207 39.7695C46.0991 39.8235 46.0064 39.9018 45.9366 39.9977C45.8668 40.0935 45.822 40.2042 45.8061 40.3202C45.7901 40.4363 45.8034 40.5543 45.8449 40.6644C46.0611 41.2257 46.451 41.7096 46.9618 42.0508C47.4726 42.392 48.0799 42.5742 48.7016 42.5728V42.5728Z" fill="white"/>
<path d="M19.7081 23.3047C22.3371 23.3047 24.4756 21.6521 24.4756 19.6214C24.4756 17.5906 22.3363 15.9373 19.7081 15.9373C19.5074 15.9373 19.3149 16.014 19.173 16.1507C19.0311 16.2873 18.9513 16.4727 18.9513 16.6659V22.5761C18.9513 22.7693 19.0311 22.9547 19.173 23.0913C19.3149 23.228 19.5074 23.3047 19.7081 23.3047ZM20.4648 17.458C21.8785 17.6984 22.9621 18.5918 22.9621 19.6214C22.9621 20.651 21.8777 21.5436 20.4648 21.784V17.458Z" fill="white"/>
<path d="M23.6758 20.9068C23.8293 20.9069 23.9791 20.862 24.1055 20.7782C24.2319 20.6944 24.3288 20.5756 24.3834 20.4375L26.1277 16.043H28.0438C28.2445 16.043 28.437 15.9662 28.5789 15.8296C28.7209 15.6929 28.8006 15.5076 28.8006 15.3144C28.8006 15.1211 28.7209 14.9358 28.5789 14.7991C28.437 14.6625 28.2445 14.5857 28.0438 14.5857H25.6071C25.4539 14.5857 25.3042 14.6305 25.178 14.7142C25.0518 14.7978 24.955 14.9164 24.9003 15.0542L22.9698 19.9151C22.9254 20.0255 22.9096 20.1447 22.9238 20.2623C22.938 20.38 22.9818 20.4925 23.0513 20.5901C23.1209 20.6878 23.2141 20.7677 23.3229 20.8229C23.4317 20.878 23.5529 20.9069 23.6758 20.9068V20.9068Z" fill="white"/>
<path d="M42.6081 41.1532C42.7549 41.1531 42.8986 41.1118 43.0215 41.0345C43.1444 40.9571 43.2413 40.847 43.3003 40.7175C43.3593 40.5881 43.378 40.4449 43.354 40.3054C43.33 40.1659 43.2643 40.0362 43.1651 39.932C41.8521 38.5534 39.9867 35.8814 40.5633 34.5771C40.9364 33.7369 42.4197 33.5329 43.5979 33.5103C51.1579 33.3522 55.7461 40.7189 55.7916 40.7933C55.893 40.96 56.0591 41.0812 56.2533 41.13C56.4476 41.1789 56.654 41.1515 56.8272 41.0538C57.0004 40.9561 57.1262 40.7961 57.1769 40.6091C57.2277 40.4221 57.1992 40.2234 57.0977 40.0566C56.8972 39.7243 52.066 31.9087 43.5677 32.053C41.2043 32.0989 39.7249 32.7554 39.1709 34.0051C38.0237 36.5925 41.6349 40.4829 42.0511 40.9179C42.122 40.9921 42.2081 41.0513 42.304 41.0918C42.3998 41.1323 42.5034 41.1532 42.6081 41.1532Z" fill="white"/>
</svg>
