<svg width="65" height="65" viewBox="0 0 65 65" fill="none" xmlns="http://www.w3.org/2000/svg">
<circle cx="32.5" cy="32.5" r="32.5" fill="#F9A542"/>
<path d="M32 12C24.2459 12 17.9375 18.3084 17.9375 26.0625C17.9375 28.6823 18.6632 31.2391 20.0366 33.4572L31.1995 51.446C31.4134 51.7906 31.7901 52 32.1952 52C32.1984 52 32.2014 52 32.2045 52C32.6132 51.9968 32.9907 51.7809 33.2006 51.4303L44.079 33.2672C45.3766 31.0959 46.0625 28.6046 46.0625 26.0625C46.0625 18.3084 39.7541 12 32 12ZM42.0677 32.0639L32.1775 48.577L22.0287 32.2223C20.8855 30.3761 20.2656 28.2461 20.2656 26.0625C20.2656 19.6008 25.5383 14.3281 32 14.3281C38.4617 14.3281 43.7266 19.6008 43.7266 26.0625C43.7266 28.1813 43.1476 30.2569 42.0677 32.0639Z" fill="white"/>
<path d="M32 19.0312C28.123 19.0312 24.9688 22.1855 24.9688 26.0625C24.9688 29.9148 28.0716 33.0938 32 33.0938C35.9768 33.0938 39.0312 29.8724 39.0312 26.0625C39.0312 22.1855 35.877 19.0312 32 19.0312ZM32 30.7656C29.4018 30.7656 27.2969 28.6537 27.2969 26.0625C27.2969 23.4778 29.4153 21.3594 32 21.3594C34.5847 21.3594 36.6953 23.4778 36.6953 26.0625C36.6953 28.6159 34.6394 30.7656 32 30.7656Z" fill="white"/>
</svg>
