<svg width="65" height="65" viewBox="0 0 65 65" fill="none" xmlns="http://www.w3.org/2000/svg">
<circle cx="32.5" cy="32.5" r="32.5" fill="#F9A542"/>
<path d="M27.6614 28.3035H14.7519C14.5512 28.3035 14.3587 28.2267 14.2168 28.09C14.0748 27.9534 13.9951 27.768 13.9951 27.5748C13.9993 26.4482 14.4673 25.3692 15.2965 24.5744C16.1257 23.7796 17.2483 23.3337 18.4184 23.3347H27.6614C28.1464 23.3353 28.6114 23.5211 28.9543 23.8515C29.2973 24.1818 29.4901 24.6296 29.4905 25.0966V26.5233C29.4963 26.797 29.4332 27.0679 29.3066 27.313C29.1799 27.558 28.9935 27.7699 28.7632 27.9304C28.4532 28.1761 28.0629 28.3083 27.6614 28.3035V28.3035ZM15.61 26.8461H27.6614C27.6866 26.8492 27.7121 26.8471 27.7364 26.84C27.7607 26.8328 27.7831 26.8208 27.8021 26.8046C27.8316 26.7795 27.863 26.7566 27.896 26.7361C27.9248 26.7085 27.947 26.6751 27.961 26.6384C27.9749 26.6016 27.9804 26.5623 27.977 26.5233V25.0966C27.9774 25.0566 27.9695 25.0169 27.9538 24.9798C27.9381 24.9427 27.9148 24.909 27.8855 24.8806C27.8561 24.8523 27.8212 24.8299 27.7827 24.8146C27.7442 24.7994 27.703 24.7917 27.6614 24.792H18.4184C17.7814 24.7915 17.1618 24.9922 16.6545 25.3632C16.1473 25.7342 15.7804 26.2551 15.61 26.8461V26.8461Z" fill="white"/>
<path d="M46.4979 43.7561H23.9784C23.8337 43.7561 23.6921 43.7161 23.5703 43.6409C23.4486 43.5658 23.3517 43.4586 23.2912 43.3321L22.2454 41.1461H6.27026C6.16313 41.1461 6.05722 41.1242 5.95952 41.0819C5.86182 41.0396 5.77457 40.9778 5.70353 40.9006C5.6325 40.8234 5.5793 40.7325 5.54745 40.634C5.51561 40.5355 5.50584 40.4316 5.5188 40.3292C6.84616 29.7637 14.1761 27.0043 14.4879 26.8928C14.6737 26.8334 14.8762 26.8457 15.0528 26.9271C15.2294 27.0085 15.3664 27.1526 15.435 27.3292C15.5036 27.5057 15.4984 27.701 15.4206 27.874C15.3427 28.047 15.1983 28.1842 15.0176 28.2568C14.7429 28.3574 8.60032 30.7175 7.13675 39.6888H22.7259C22.8705 39.6888 23.0121 39.7286 23.1338 39.8037C23.2556 39.8787 23.3525 39.9857 23.4131 40.1121L24.4589 42.2981H46.4957C46.6964 42.2981 46.8889 42.3749 47.0308 42.5115C47.1727 42.6482 47.2524 42.8335 47.2524 43.0267C47.2524 43.22 47.1727 43.4053 47.0308 43.542C46.8889 43.6786 46.6964 43.7554 46.4957 43.7554L46.4979 43.7561Z" fill="white"/>
<path d="M51.1988 32.2265C51.0422 32.2265 50.8894 32.1796 50.7616 32.0925C50.6338 32.0053 50.5372 31.8821 50.4852 31.7398C49.5671 29.334 48.1249 27.1451 46.2557 25.3203C45.4852 24.5362 44.65 23.8134 43.7584 23.1591C43.6792 23.1012 43.6128 23.0288 43.5627 22.9461C43.5127 22.8634 43.48 22.7721 43.4666 22.6772C43.4396 22.4857 43.4927 22.2917 43.6142 22.1379C43.7357 21.9841 43.9157 21.883 44.1146 21.857C44.3135 21.831 44.515 21.8821 44.6748 21.9991C45.6313 22.7 46.5272 23.4745 47.3537 24.3148C49.3709 26.2884 50.926 28.6549 51.9147 31.2552C51.955 31.3651 51.9673 31.4827 51.9507 31.5982C51.934 31.7136 51.8888 31.8235 51.8189 31.9187C51.749 32.0138 51.6564 32.0915 51.5489 32.145C51.4414 32.1986 51.3221 32.2265 51.2011 32.2265H51.1988Z" fill="white"/>
<path d="M34.3279 40.2979C33.6009 40.297 32.8765 40.2156 32.1689 40.0553C30.2829 39.6383 28.6132 38.5876 27.4596 37.0918C26.3909 35.5857 25.8389 33.7952 25.8811 31.9716C25.9233 30.148 26.5576 28.3829 27.6949 26.9241C27.7519 26.8434 27.8251 26.7745 27.9102 26.7216C27.9953 26.6686 28.0906 26.6327 28.1905 26.6159C28.2903 26.5991 28.3926 26.6018 28.4913 26.6237C28.5901 26.6457 28.6832 26.6866 28.7652 26.7439C28.8473 26.8012 28.9165 26.8738 28.9688 26.9573C29.0212 27.0409 29.0556 27.1337 29.0699 27.2303C29.0843 27.3269 29.0784 27.4253 29.0525 27.5197C29.0266 27.614 28.9814 27.7024 28.9193 27.7796C27.9685 28.9911 27.4354 30.4588 27.3946 31.9769C27.3539 33.4949 27.8077 34.9872 28.6923 36.2444C29.638 37.4488 30.9925 38.2956 32.52 38.6373C35.6711 39.3441 38.5824 38.2548 41.1712 35.3984C44.5888 31.6232 41.1296 25.8807 38.764 22.7926C38.5395 22.5 38.3974 22.1565 38.3515 21.7953C38.3057 21.4342 38.3577 21.0678 38.5024 20.7318C38.6471 20.3957 38.8797 20.1014 39.1775 19.8775C39.4753 19.6536 39.8281 19.5076 40.2018 19.4539C40.3618 19.4294 40.5257 19.4549 40.6695 19.5268C40.693 19.5384 40.7338 19.5617 40.7558 19.5756C40.8426 19.6188 40.9195 19.6783 40.9819 19.7506C41.0444 19.8229 41.0911 19.9066 41.1193 19.9966C41.1476 20.0867 41.1567 20.1813 41.1463 20.2748C41.1358 20.3683 41.106 20.4589 41.0585 20.5411C40.9862 20.67 40.8755 20.7753 40.7407 20.8433C40.6059 20.9113 40.453 20.939 40.3017 20.9229C40.2108 20.9536 40.1278 21.0026 40.058 21.0665C39.9882 21.1304 39.9333 21.2079 39.8969 21.2938C39.852 21.3967 39.836 21.5091 39.8504 21.6199C39.8649 21.7306 39.9094 21.8358 39.9793 21.9248C42.6159 25.3641 46.4231 31.8112 42.3102 36.3522C39.5253 39.433 36.6678 40.2979 34.3279 40.2979V40.2979Z" fill="white"/>
<path d="M46.6736 43.7561H43.1048C42.9629 43.7563 42.8239 43.7182 42.7035 43.6461C42.583 43.5739 42.4861 43.4707 42.4237 43.348C41.8316 42.1923 41.5247 40.9205 41.5269 39.6319C41.5287 37.3619 42.4659 35.1854 44.1328 33.5802C45.7996 31.975 48.0598 31.0722 50.4173 31.0701C52.0924 31.0645 53.7344 31.5193 55.1504 32.3812C56.5664 33.243 57.6975 34.476 58.4109 35.9354C58.4947 36.1037 58.5082 36.2965 58.4486 36.4741C58.389 36.6517 58.261 36.8006 58.0908 36.8899L55.4785 38.2598C55.3859 38.3086 55.2837 38.3383 55.1785 38.3468C55.0733 38.3554 54.9674 38.3426 54.8676 38.3094C54.7678 38.2762 54.6764 38.2233 54.5991 38.154C54.5219 38.0847 54.4605 38.0006 54.419 37.9071C54.0815 37.1551 53.5222 36.5149 52.8105 36.066C52.0988 35.6171 51.2659 35.3791 50.415 35.3816C49.2457 35.3831 48.1247 35.8311 47.2979 36.6274C46.4711 37.4236 46.0061 38.503 46.0047 39.6289C46.0041 40.7082 46.4381 41.7457 47.2155 42.5232C47.3181 42.6263 47.387 42.7561 47.4136 42.8966C47.4403 43.0371 47.4234 43.182 47.3652 43.3134C47.307 43.4447 47.21 43.5567 47.0862 43.6354C46.9625 43.7141 46.8174 43.7561 46.6691 43.7561H46.6736ZM43.5929 42.2988H45.1934C44.7331 41.4787 44.4925 40.5611 44.4934 39.6289C44.4952 38.1166 45.1199 36.6667 46.2304 35.5973C47.341 34.5279 48.8467 33.9262 50.4173 33.9243C51.4236 33.9222 52.4135 34.1696 53.2918 34.6425C54.1702 35.1155 54.9073 35.7981 55.4323 36.6247L56.7075 35.9558C56.059 34.9074 55.1376 34.0401 54.0345 33.4395C52.9313 32.8389 51.6846 32.5258 50.4173 32.5311C48.462 32.5334 46.5876 33.2824 45.2051 34.6137C43.8226 35.945 43.0449 37.7499 43.0427 39.6326C43.041 40.5476 43.228 41.4539 43.5929 42.2988V42.2988Z" fill="white"/>
<path d="M50.3633 45.3286C49.1927 45.3286 48.0484 44.9944 47.0751 44.3682C46.1018 43.742 45.3432 42.8519 44.8952 41.8106C44.4473 40.7693 44.3301 39.6234 44.5584 38.518C44.7868 37.4125 45.3505 36.3971 46.1782 35.6001C47.006 34.8031 48.0605 34.2603 49.2086 34.0404C50.3567 33.8205 51.5468 33.9334 52.6282 34.3647C53.7097 34.796 54.6341 35.5265 55.2844 36.4636C55.9348 37.4008 56.2819 38.5026 56.2819 39.6298C56.2801 41.1406 55.6559 42.5892 54.5464 43.6575C53.4368 44.7259 51.9325 45.3269 50.3633 45.3286V45.3286ZM50.3633 35.3882C49.4921 35.3882 48.6404 35.637 47.916 36.1031C47.1916 36.5691 46.6269 37.2316 46.2935 38.0066C45.9601 38.7816 45.8729 39.6345 46.0429 40.4572C46.2128 41.28 46.6324 42.0358 47.2484 42.629C47.8645 43.2222 48.6494 43.6261 49.5039 43.7898C50.3584 43.9534 51.2441 43.8694 52.049 43.5484C52.854 43.2274 53.542 42.6837 54.026 41.9862C54.51 41.2887 54.7684 40.4686 54.7684 39.6298C54.7672 38.5052 54.3027 37.427 53.4768 36.6318C52.651 35.8366 51.5312 35.3894 50.3633 35.3882V35.3882Z" fill="white"/>
<path d="M50.3634 42.5751C49.7585 42.5751 49.1671 42.4023 48.6641 42.0787C48.161 41.7551 47.769 41.2951 47.5375 40.7569C47.306 40.2187 47.2454 39.6266 47.3634 39.0552C47.4814 38.4839 47.7728 37.9591 48.2005 37.5472C48.6283 37.1353 49.1733 36.8548 49.7667 36.7412C50.36 36.6275 50.9751 36.6858 51.534 36.9088C52.0929 37.1317 52.5706 37.5092 52.9067 37.9935C53.2428 38.4779 53.4222 39.0473 53.4222 39.6298C53.4214 40.4107 53.0989 41.1594 52.5254 41.7116C51.952 42.2637 51.1744 42.5743 50.3634 42.5751V42.5751ZM50.3634 38.1419C50.0578 38.1419 49.759 38.2292 49.5049 38.3927C49.2508 38.5561 49.0527 38.7885 48.9358 39.0604C48.8188 39.3323 48.7882 39.6315 48.8478 39.9201C48.9075 40.2087 49.0546 40.4738 49.2707 40.6819C49.4869 40.89 49.7622 41.0317 50.062 41.0892C50.3617 41.1466 50.6724 41.1171 50.9548 41.0045C51.2372 40.8919 51.4785 40.7012 51.6483 40.4565C51.8181 40.2118 51.9087 39.9241 51.9087 39.6298C51.9083 39.2353 51.7454 38.8571 51.4557 38.5781C51.166 38.2992 50.7731 38.1423 50.3634 38.1419V38.1419Z" fill="white"/>
<path d="M15.2983 45.3351C13.8924 45.3337 12.533 44.8503 11.4637 43.9714C10.3944 43.0926 9.68508 41.8757 9.46297 40.539C9.44361 40.4435 9.44434 40.3451 9.46512 40.2499C9.48589 40.1546 9.52629 40.0643 9.58392 39.9843C9.64155 39.9043 9.71525 39.8362 9.80066 39.7841C9.88607 39.732 9.98146 39.6969 10.0812 39.6808C10.1809 39.6648 10.283 39.6682 10.3814 39.6908C10.4797 39.7134 10.5724 39.7547 10.6538 39.8124C10.7353 39.87 10.804 39.9428 10.8558 40.0265C10.9075 40.1101 10.9414 40.2029 10.9553 40.2993C11.1217 41.2951 11.6511 42.2013 12.4485 42.8553C13.2459 43.5094 14.2591 43.8687 15.3066 43.8687C16.3541 43.8687 17.3674 43.5094 18.1648 42.8553C18.9622 42.2013 19.4915 41.2951 19.658 40.2993C19.6719 40.2029 19.7058 40.1101 19.7575 40.0265C19.8093 39.9428 19.878 39.87 19.9594 39.8124C20.0409 39.7547 20.1336 39.7134 20.2319 39.6908C20.3303 39.6682 20.4323 39.6648 20.5321 39.6808C20.6318 39.6969 20.7272 39.732 20.8126 39.7841C20.898 39.8362 20.9717 39.9043 21.0294 39.9843C21.087 40.0643 21.1274 40.1546 21.1482 40.2499C21.1689 40.3451 21.1697 40.4435 21.1503 40.539C20.9256 41.8775 20.2133 43.0952 19.141 43.974C18.0687 44.8528 16.7064 45.3353 15.2983 45.3351Z" fill="white"/>
<path d="M15.2984 42.5728C14.6807 42.5686 14.0786 42.3858 13.5703 42.0479C13.0619 41.7101 12.6708 41.2329 12.4477 40.6782C12.4035 40.5678 12.3878 40.4487 12.4021 40.3312C12.4164 40.2137 12.4602 40.1013 12.5297 40.0037C12.5992 39.9061 12.6924 39.8263 12.8011 39.7712C12.9098 39.7161 13.0309 39.6873 13.1538 39.6873H17.4438C17.5654 39.6873 17.6852 39.7155 17.7931 39.7695C17.9009 39.8235 17.9937 39.9018 18.0635 39.9977C18.1332 40.0935 18.178 40.2042 18.194 40.3202C18.2099 40.4363 18.1966 40.5543 18.1552 40.6644C17.9389 41.2257 17.5491 41.7096 17.0382 42.0508C16.5274 42.392 15.9201 42.5742 15.2984 42.5728V42.5728Z" fill="white"/>
<path d="M44.2919 23.3047C41.6629 23.3047 39.5244 21.6521 39.5244 19.6214C39.5244 17.5906 41.6637 15.9373 44.2919 15.9373C44.4926 15.9373 44.6851 16.014 44.827 16.1507C44.9689 16.2873 45.0487 16.4727 45.0487 16.6659V22.5761C45.0487 22.7693 44.9689 22.9547 44.827 23.0913C44.6851 23.228 44.4926 23.3047 44.2919 23.3047ZM43.5352 17.458C42.1215 17.6984 41.0379 18.5918 41.0379 19.6214C41.0379 20.651 42.1223 21.5436 43.5352 21.784V17.458Z" fill="white"/>
<path d="M40.3242 20.9068C40.1707 20.9069 40.0209 20.862 39.8945 20.7782C39.7681 20.6944 39.6712 20.5756 39.6166 20.4375L37.8723 16.043H35.9562C35.7555 16.043 35.563 15.9662 35.4211 15.8296C35.2791 15.6929 35.1994 15.5076 35.1994 15.3144C35.1994 15.1211 35.2791 14.9358 35.4211 14.7991C35.563 14.6625 35.7555 14.5857 35.9562 14.5857H38.3929C38.5461 14.5857 38.6958 14.6305 38.822 14.7142C38.9482 14.7978 39.045 14.9164 39.0997 15.0542L41.0302 19.9151C41.0746 20.0255 41.0904 20.1447 41.0762 20.2623C41.062 20.38 41.0182 20.4925 40.9487 20.5901C40.8791 20.6878 40.7859 20.7677 40.6771 20.8229C40.5683 20.878 40.4471 20.9069 40.3242 20.9068V20.9068Z" fill="white"/>
<path d="M21.3919 41.1532C21.2451 41.1531 21.1015 41.1118 20.9786 41.0345C20.8556 40.9571 20.7588 40.847 20.6997 40.7175C20.6407 40.5881 20.622 40.4449 20.646 40.3054C20.6701 40.1659 20.7357 40.0362 20.835 39.932C22.1479 38.5534 24.0133 35.8814 23.4367 34.5771C23.0636 33.7369 21.5804 33.5329 20.4021 33.5103C12.8421 33.3522 8.25388 40.7189 8.20848 40.7933C8.10702 40.96 7.94091 41.0812 7.7467 41.13C7.55248 41.1789 7.34606 41.1515 7.17285 41.0538C6.99965 40.9561 6.87384 40.7961 6.8231 40.6091C6.77236 40.4221 6.80086 40.2234 6.90231 40.0566C7.10285 39.7243 11.934 31.9087 20.4324 32.053C22.7957 32.0989 24.2752 32.7554 24.8291 34.0051C25.9764 36.5925 22.3651 40.4829 21.9489 40.9179C21.878 40.9921 21.7919 41.0513 21.6961 41.0918C21.6002 41.1323 21.4966 41.1532 21.3919 41.1532Z" fill="white"/>
</svg>
