<svg width="65" height="65" viewBox="0 0 65 65" fill="none" xmlns="http://www.w3.org/2000/svg">
<circle cx="32.5" cy="32.5" r="32.5" fill="#F9A542"/>
<path d="M30.6741 42.0758C30.8482 42.2499 31.0549 42.388 31.2824 42.4823C31.5099 42.5765 31.7537 42.625 31.9999 42.625C32.2462 42.625 32.49 42.5765 32.7175 42.4823C32.945 42.388 33.1517 42.2499 33.3258 42.0758L40.3968 35.0048C40.7484 34.6531 40.946 34.1762 40.946 33.6789C40.946 33.1817 40.7484 32.7048 40.3968 32.3531C40.0452 32.0015 39.5683 31.804 39.071 31.804C38.5737 31.804 38.0968 32.0015 37.7452 32.3531L33.8749 36.2234V15.75C33.8749 15.2527 33.6774 14.7758 33.3258 14.4242C32.9741 14.0725 32.4972 13.875 31.9999 13.875C31.5027 13.875 31.0257 14.0725 30.6741 14.4242C30.3225 14.7758 30.1249 15.2527 30.1249 15.75V36.2234L26.2547 32.3531C25.9031 32.0015 25.4262 31.804 24.9289 31.804C24.4316 31.804 23.9547 32.0015 23.6031 32.3531C23.2514 32.7048 23.0539 33.1817 23.0539 33.6789C23.0539 34.1762 23.2514 34.6531 23.6031 35.0048L30.6741 42.0758Z" fill="white"/>
<rect x="13.875" y="46.375" width="36.25" height="3.75" rx="1.875" fill="white"/>
</svg>
