<svg width="40" height="40" viewBox="0 0 40 40" fill="none" xmlns="http://www.w3.org/2000/svg">
<circle cx="20" cy="20" r="20" fill="#E7EDF4"/>
<g clip-path="url(#clip0)">
<path d="M19.1368 6.73999C11.4983 6.73999 5.90291 12.524 6.00128 20.0621C6.04687 23.5561 7.18167 26.8113 9.18195 29.4998C10.0019 30.6018 11.319 31.2597 12.7052 31.2597L30.9401 31.2597C32.743 31.2597 34.3492 30.1645 35.0321 28.4695C35.896 26.3254 36.1853 23.9198 35.8851 21.5183C34.8648 13.3562 27.3315 6.73999 19.1368 6.73999ZM33.4075 27.8149C32.993 28.8436 32.0245 29.5083 30.94 29.5083L12.7051 29.5083C11.8699 29.5083 11.0781 29.1143 10.587 28.4543C10.4171 28.2259 10.2544 27.9934 10.0992 27.7569H13.8825C14.3661 27.7569 14.7582 27.3648 14.7582 26.8812C14.7582 26.3975 14.3661 26.0055 13.8825 26.0055H9.1179C8.85 25.4371 8.62039 24.8523 8.43001 24.254H12.1311C12.6147 24.254 13.0068 23.862 13.0068 23.3783C13.0068 22.8947 12.6147 22.5026 12.1311 22.5026H7.99268C7.84457 21.6973 7.76342 20.8741 7.75257 20.0392C7.66651 13.445 12.5088 8.4914 19.1368 8.4914C23.4769 8.4914 27.5975 10.5557 30.4371 13.7456H17.3854C15.9368 13.7456 14.7582 14.9241 14.7582 16.3727C14.7582 21.6842 19.1056 26.0054 24.4494 26.0049H33.9691C33.8317 26.6231 33.6445 27.2268 33.4075 27.8149ZM34.2207 24.254H24.4494C20.0714 24.254 16.5097 20.7185 16.5097 16.3727C16.5097 15.8899 16.9025 15.497 17.3854 15.497H31.79C33.0284 17.3571 33.8654 19.4813 34.1472 21.7355C34.2544 22.5929 34.2778 23.4333 34.2207 24.254Z" fill="black"/>
<path d="M19.1368 18.9999C19.6204 18.9999 20.0125 18.6079 20.0125 18.1242C20.0125 17.6406 19.6204 17.2485 19.1368 17.2485C18.6531 17.2485 18.261 17.6406 18.261 18.1242C18.261 18.6079 18.6531 18.9999 19.1368 18.9999Z" fill="black"/>
</g>
<path d="M31.5 9L7.5 32" stroke="black" stroke-width="2" stroke-linecap="round"/>
<defs>
<clipPath id="clip0">
<rect width="30" height="30" fill="white" transform="translate(6 4)"/>
</clipPath>
</defs>
</svg>
