<svg width="40" height="40" viewBox="0 0 40 40" fill="none" xmlns="http://www.w3.org/2000/svg">
<circle cx="20" cy="20" r="20" fill="#E7EDF4"/>
<g clip-path="url(#clip0)">
<path d="M31.5294 9.32153H8.47059C7.10831 9.32153 6 10.4298 6 11.7921V28.2078C6 29.5701 7.10831 30.6784 8.47059 30.6784H31.5294C32.8917 30.6784 34 29.5701 34 28.2078V11.7921C34 10.4298 32.8917 9.32153 31.5294 9.32153ZM8.47059 10.9686H31.5294C31.9835 10.9686 32.3529 11.338 32.3529 11.7921V15.9098C31.3162 15.9098 8.2988 15.9098 7.64706 15.9098V11.7921C7.64706 11.338 8.01649 10.9686 8.47059 10.9686ZM10.9412 17.5568H17.5294V24.1479C17.195 23.7027 16.772 23.328 16.2876 23.0482C17.378 21.4245 16.217 19.2039 14.2353 19.2039C12.873 19.2039 11.7647 20.3122 11.7647 21.6745C11.7647 22.1825 11.919 22.6551 12.1829 23.0482C11.6985 23.328 11.2756 23.7027 10.9412 24.1479V17.5568ZM13.4118 21.6745C13.4118 21.2204 13.7812 20.8509 14.2353 20.8509C14.6894 20.8509 15.0588 21.2204 15.0588 21.6745C15.0588 22.1286 14.6894 22.498 14.2353 22.498C13.7812 22.498 13.4118 22.1286 13.4118 21.6745ZM16.5648 25.7921H11.9058C12.6822 23.6024 15.7878 23.6004 16.5648 25.7921ZM31.5294 29.0313H8.47059C8.01649 29.0313 7.64706 28.6619 7.64706 28.2078V17.5568H9.29412V26.6157C9.29412 27.0705 9.66284 27.4392 10.1176 27.4392H18.3529C18.8077 27.4392 19.1765 27.0705 19.1765 26.6157V17.5568H32.3529V28.2078C32.3529 28.6619 31.9835 29.0313 31.5294 29.0313Z" fill="black"/>
<path d="M33 7L7.5 33" stroke="black" stroke-width="2" stroke-linecap="round"/>
<path d="M21.647 20.8509H29.8824C30.3372 20.8509 30.7059 20.4822 30.7059 20.0274C30.7059 19.5726 30.3372 19.2039 29.8824 19.2039H21.647C21.1922 19.2039 20.8235 19.5726 20.8235 20.0274C20.8235 20.4822 21.1922 20.8509 21.647 20.8509Z" fill="black"/>
<path d="M29.8851 22.498H21.647C21.1922 22.498 20.8235 22.8668 20.8235 23.3216C20.8235 23.7764 21.1922 24.1451 21.647 24.1451H29.8851C30.3399 24.1451 30.7086 23.7764 30.7086 23.3216C30.7086 22.8668 30.3399 22.498 29.8851 22.498Z" fill="black"/>
</g>
<defs>
<clipPath id="clip0">
<rect width="28" height="28" fill="white" transform="translate(6 6)"/>
</clipPath>
</defs>
</svg>
