<svg width="65" height="65" viewBox="0 0 65 65" fill="none" xmlns="http://www.w3.org/2000/svg">
<circle cx="32.5" cy="32.5" r="32.5" fill="#F9A542"/>
<path d="M42.9335 52.2812H34.8556V40.187C41.8975 38.8474 47.2376 32.6491 47.2376 25.2276C47.2376 16.8311 40.4021 10 32.0001 10C23.598 10 16.7626 16.8311 16.7626 25.2276C16.7626 32.649 22.1026 38.8474 29.1445 40.187V52.2812H21.0666C20.5919 52.2812 20.2072 52.6661 20.2072 53.1406C20.2072 53.6152 20.5919 54 21.0666 54H42.9335C43.4081 54 43.7928 53.6152 43.7928 53.1406C43.7928 52.6661 43.4082 52.2812 42.9335 52.2812ZM18.4813 25.2276C18.4813 17.7789 24.5458 11.7188 32.0001 11.7188C39.4544 11.7188 45.5188 17.7789 45.5188 25.2276C45.5188 32.6763 39.4544 38.7365 32.0001 38.7365C24.5458 38.7365 18.4813 32.6764 18.4813 25.2276ZM30.8633 52.2812V40.4132C31.2387 40.441 31.6177 40.4552 32.0001 40.4552C32.3824 40.4552 32.7615 40.441 33.1368 40.4132V52.2812H30.8633Z" fill="white"/>
<path d="M43.4563 25.2276C43.4563 18.9161 38.3171 13.7812 32.0001 13.7812C25.6831 13.7812 20.5438 18.9161 20.5438 25.2276C20.5438 31.5391 25.6831 36.674 32.0001 36.674C38.3171 36.674 43.4563 31.5392 43.4563 25.2276ZM22.2626 25.2276C22.2626 19.8637 26.6308 15.5 32.0001 15.5C37.3694 15.5 41.7376 19.8637 41.7376 25.2276C41.7376 30.5914 37.3694 34.9551 32.0001 34.9551C26.6308 34.9551 22.2626 30.5914 22.2626 25.2276Z" fill="white"/>
<path d="M32.9758 26.9922C35.0023 26.9922 36.651 25.3678 36.651 23.3711C36.651 21.3745 35.0023 19.75 32.9758 19.75H30.2509C30.1953 19.7503 29.8751 19.7569 29.6273 20.0183C29.3997 20.2583 29.3918 20.546 29.3915 20.6093V30.3957C29.3915 30.8702 29.7763 31.2551 30.2509 31.2551C30.7255 31.2551 31.1103 30.8702 31.1103 30.3957V26.9994C31.7341 26.9961 32.5497 26.9922 32.9758 26.9922ZM32.9758 21.4687C34.0363 21.4687 34.9323 22.3399 34.9323 23.3711C34.9323 24.4022 34.0364 25.2735 32.9758 25.2735C32.5517 25.2735 31.7473 25.2773 31.1244 25.2807C31.1209 24.6401 31.1171 23.804 31.1171 23.3711C31.1171 23.005 31.1148 22.1356 31.1129 21.4687H32.9758Z" fill="white"/>
</svg>
