<svg width="65" height="65" viewBox="0 0 65 65" fill="none" xmlns="http://www.w3.org/2000/svg">
<circle cx="32.5" cy="32.5" r="32.5" fill="#F9A542"/>
<path d="M32 18.1016V20.8359H29.0312V18.1016H32ZM29.0312 34.166V38.0625H32V34.166H29.0312ZM37.9375 49V46.2656H34.9688V43.5312H32V49H37.9375ZM43.875 28.6973H34.9688V31.4316H43.875V28.6973ZM43.875 34.166H48.0312V31.4316H43.875V34.166ZM43.875 38.0625V40.7969H51V34.166H48.0312V38.0625H43.875ZM34.9688 14H32V18.1016H34.9688V14ZM32 26.3047H34.9688V20.8359H32V23.5703H29.0312V31.4316H32V26.3047ZM13 28.6973V34.166H15.9688V31.4316H20.4219V28.6973H13ZM34.9688 34.166V31.4316H32V34.166H34.9688ZM40.9062 36.9004H43.875V34.166H40.9062V36.9004ZM48.0312 31.4316H51V28.6973H48.0312V31.4316ZM37.9375 34.166H34.9688V38.0625H32V40.7969H37.9375V34.166ZM29.0312 43.5312H32V40.7969H29.0312V43.5312ZM37.9375 40.7969V43.5312H43.875V40.7969H37.9375ZM46.8438 46.2656V43.5312H43.875V46.2656H46.8438ZM51 49V46.2656H46.8438V49H51ZM40.9062 49H43.875V46.2656H40.9062V49ZM26.3594 31.4316V28.6973H23.3906V31.4316H20.4219V34.166H29.0312V31.4316H26.3594ZM26.3594 26.3047H13V14H26.3594V26.3047ZM23.3906 16.7344H15.9688V23.5703H23.3906V16.7344ZM21.1641 18.7852H18.1953V21.5195H21.1641V18.7852ZM51 14V26.3047H37.6406V14H51ZM48.0312 16.7344H40.6094V23.5703H48.0312V16.7344ZM45.8047 18.7852H42.8359V21.5195H45.8047V18.7852ZM13 36.6953H26.3594V49H13V36.6953ZM15.9688 46.2656H23.3906V39.4297H15.9688V46.2656ZM18.1953 44.2148H21.1641V41.4805H18.1953V44.2148Z" fill="white"/>
</svg>
