<svg width="40" height="40" viewBox="0 0 40 40" fill="none" xmlns="http://www.w3.org/2000/svg">
<circle cx="20" cy="20" r="20" fill="#E7EDF4"/>
<path d="M30.6794 17.2431H19.9651C18.7844 17.2431 17.8222 16.2831 17.8222 15.1002C17.8222 13.9173 18.7844 12.9573 19.9651 12.9573H22.3051C22.7487 14.2023 23.9251 15.1002 25.3222 15.1002C27.0965 15.1002 28.5365 13.6602 28.5365 11.8859C28.5365 10.1116 27.0965 8.67163 25.3222 8.67163C23.9251 8.67163 22.7465 9.56949 22.3051 10.8145H19.9651C17.6015 10.8145 15.6794 12.7366 15.6794 15.1002C15.6794 17.4638 17.6015 19.3859 19.9651 19.3859H30.6794C31.8622 19.3859 32.8222 20.3459 32.8222 21.5288C32.8222 22.7116 31.8622 23.6716 30.6794 23.6716H11.1965C10.7529 22.4266 9.57652 21.5288 8.17937 21.5288C6.40509 21.5288 4.96509 22.9688 4.96509 24.7431C4.96509 26.5173 6.40509 27.9573 8.17937 27.9573C9.57652 27.9573 10.7551 27.0595 11.1965 25.8145H30.6794C33.0429 25.8145 34.9651 23.8923 34.9651 21.5288C34.9651 19.1652 33.0429 17.2431 30.6794 17.2431Z" fill="black"/>
</svg>
