<svg width="40" height="40" viewBox="0 0 40 40" fill="none" xmlns="http://www.w3.org/2000/svg">
<circle cx="20" cy="20" r="20" fill="#E7EDF4"/>
<path d="M34.9958 24.2731C34.9935 24.2079 34.9912 24.1424 34.989 24.0766C34.9866 24.0109 34.9842 23.9449 34.9817 23.8787L34.9798 23.8291L34.9789 23.8043L34.9786 23.798L34.978 23.7425L34.9778 23.7399L34.977 23.7296L34.9707 23.6472C34.9621 23.5374 34.9536 23.427 34.945 23.3167L34.9385 23.2332L34.9286 23.1249C34.9218 23.0528 34.915 22.9808 34.9082 22.909C34.9012 22.8373 34.8941 22.7657 34.8871 22.6943C34.8835 22.6586 34.8799 22.623 34.8763 22.5875C34.8719 22.5546 34.8675 22.5218 34.8632 22.489C34.8272 22.2287 34.7951 21.973 34.7493 21.7271C34.7276 21.604 34.7076 21.483 34.6851 21.3651C34.6606 21.2475 34.6366 21.1325 34.6132 21.0205C34.5689 20.7963 34.5133 20.587 34.4665 20.3935C34.4545 20.3452 34.4427 20.2978 34.4313 20.2516C34.4185 20.2056 34.406 20.1608 34.3938 20.117C34.3691 20.0296 34.3457 19.9467 34.3237 19.8689C34.3013 19.7912 34.2815 19.7183 34.2609 19.6514C34.2396 19.5847 34.2201 19.5235 34.2024 19.4681C34.1762 19.3868 34.1542 19.3184 34.1367 19.2643C34.111 19.1844 34.0266 19.1395 33.9459 19.1625L28.8739 20.6079C28.7967 20.6299 28.7488 20.7069 28.7635 20.7859C28.769 20.8154 28.7753 20.8492 28.7823 20.887C28.7895 20.925 28.7975 20.9672 28.8062 21.0131C28.8145 21.0591 28.821 21.1095 28.8293 21.1628C28.8374 21.2161 28.8461 21.273 28.8552 21.3328C28.8596 21.3627 28.8649 21.3932 28.869 21.4247C28.8726 21.4563 28.8763 21.4886 28.8801 21.5216C28.8942 21.6538 28.9153 21.7954 28.9247 21.9473C28.9309 22.0229 28.9374 22.1005 28.944 22.1798C28.9489 22.2593 28.9513 22.3408 28.9556 22.4232C28.9666 22.5878 28.9645 22.7592 28.9676 22.9321L28.9684 22.9965L28.9661 23.0535C28.9648 23.0915 28.9635 23.1295 28.9622 23.1677C28.9612 23.2057 28.9601 23.2438 28.9591 23.282L28.9579 23.3391L28.9544 23.4212C28.9497 23.5318 28.945 23.6423 28.9403 23.7525L28.9368 23.835L28.9363 23.8453L28.9362 23.8478C28.9362 23.8602 28.9352 23.7496 28.9356 23.7974L28.9351 23.8014L28.9336 23.8177L28.9306 23.8503C28.9267 23.8937 28.9228 23.9368 28.9189 23.9798C28.9152 24.0227 28.9114 24.0656 28.9077 24.1081C28.9026 24.1505 28.8976 24.1927 28.8926 24.2345C28.8818 24.3182 28.8752 24.4011 28.8618 24.4819C28.8502 24.5627 28.8387 24.642 28.8274 24.7198C28.814 24.797 28.8008 24.8726 28.7881 24.9461C28.7765 25.0197 28.761 25.0906 28.7473 25.1591C28.7329 25.2276 28.7214 25.2941 28.7065 25.3572C28.6919 25.4203 28.678 25.4806 28.6647 25.5381C28.6581 25.5665 28.6517 25.5941 28.6455 25.621C28.6392 25.6441 28.633 25.6664 28.627 25.6881C28.6234 25.7014 28.6201 25.7138 28.6166 25.7267H34.82C34.9031 25.7267 34.9724 25.6614 34.9755 25.5784C34.9755 25.5778 34.9755 25.5774 34.9756 25.5769C34.9807 25.4614 34.986 25.3427 34.9915 25.2215C34.9938 25.1003 34.9961 24.9766 34.9985 24.8507C35.0021 24.7249 34.9983 24.5971 34.9979 24.4679C34.9972 24.4033 34.9965 24.3384 34.9958 24.2731Z" fill="#252122"/>
<path d="M33.3828 17.7621C33.466 17.7286 33.504 17.6322 33.4656 17.5512C33.4485 17.5151 33.4286 17.473 33.406 17.4254C33.3847 17.3806 33.3612 17.331 33.3356 17.277C33.3025 17.2096 33.2666 17.1366 33.2283 17.0586C33.1898 16.981 33.1487 16.8983 33.1054 16.8113C33.0835 16.766 33.0619 16.7286 33.0393 16.6861C33.0168 16.6445 32.9938 16.602 32.9703 16.5586C32.923 16.472 32.8747 16.3814 32.8228 16.2886C32.7692 16.1968 32.7138 16.1019 32.6569 16.0043C32.6283 15.9557 32.5994 15.9063 32.57 15.8564C32.5394 15.8073 32.5083 15.7575 32.477 15.7073C32.4139 15.6071 32.3495 15.5048 32.284 15.4007C32.1458 15.1971 32.0082 14.984 31.8546 14.7767C31.8169 14.7245 31.779 14.6721 31.741 14.6196L31.6838 14.5408L31.6243 14.4634C31.5447 14.3603 31.4648 14.2569 31.385 14.1535C31.3036 14.0513 31.2195 13.9512 31.1371 13.8508C31.0954 13.8009 31.055 13.7502 31.0125 13.7015C30.9698 13.6529 30.9273 13.6044 30.8849 13.5561C30.8425 13.508 30.8002 13.46 30.7582 13.4123C30.7164 13.3644 30.6743 13.3173 30.6309 13.2718C30.5448 13.1802 30.4599 13.0897 30.3763 13.0007C30.2926 12.912 30.206 12.8286 30.1235 12.7452C30.0405 12.6623 29.9598 12.5808 29.8773 12.5052C29.7958 12.4289 29.7165 12.3547 29.6398 12.2829C29.5635 12.2109 29.4855 12.1455 29.4129 12.0808C29.3397 12.0168 29.2695 11.9554 29.2027 11.897C29.1342 11.8406 29.0693 11.7871 29.0083 11.7368C28.9472 11.6868 28.8901 11.6399 28.8372 11.5966C28.7843 11.5534 28.7337 11.516 28.6891 11.4811C28.6241 11.4312 28.5692 11.3891 28.5256 11.3556C28.4591 11.3046 28.3643 11.3155 28.3109 11.3801L25.5887 14.6753C25.5374 14.7374 25.5418 14.8282 25.599 14.8849C25.6218 14.9074 25.6481 14.9334 25.6776 14.9627C25.7059 14.9912 25.7384 15.0213 25.7717 15.0565C25.805 15.0916 25.8409 15.1297 25.8793 15.1703C25.9178 15.2107 25.9588 15.2537 26.0019 15.2991C26.0435 15.3459 26.0872 15.3952 26.1328 15.4465C26.1779 15.4984 26.2271 15.5499 26.274 15.6073C26.3213 15.6641 26.3701 15.7229 26.4204 15.7833C26.4716 15.8426 26.5205 15.907 26.571 15.972C26.6211 16.0375 26.6746 16.1021 26.7249 16.1713C26.7752 16.2404 26.8263 16.3105 26.8781 16.3816C26.9045 16.4165 26.9295 16.453 26.9542 16.49C26.9791 16.5268 27.0042 16.5637 27.0293 16.6007C27.0545 16.6376 27.0799 16.6747 27.1053 16.7119C27.1306 16.7491 27.1538 16.788 27.1783 16.8261C27.2263 16.9029 27.2762 16.9785 27.3234 17.0559C27.3694 17.134 27.4155 17.2121 27.4614 17.2899L27.4958 17.3479L27.528 17.4072C27.5496 17.4465 27.571 17.4858 27.5924 17.5249C27.6807 17.6793 27.7552 17.8384 27.8331 17.988C27.8688 18.0647 27.9039 18.14 27.9382 18.2139C27.9554 18.2506 27.9724 18.287 27.9892 18.3229C28.0048 18.3595 28.0201 18.3956 28.0353 18.4312C28.0658 18.5021 28.0954 18.5712 28.1241 18.638C28.1506 18.7056 28.1762 18.771 28.2007 18.8337C28.213 18.865 28.225 18.8957 28.2368 18.9257C28.2479 18.9549 28.2617 18.9866 28.2691 19.0109C28.2866 19.062 28.3032 19.1106 28.3188 19.1562C28.3347 19.2015 28.3496 19.2438 28.3634 19.283C28.3815 19.337 28.3981 19.3865 28.4131 19.4313C28.4298 19.4813 28.4445 19.5256 28.4572 19.5634C28.4855 19.6485 28.5797 19.6918 28.6629 19.6584L33.3828 17.7621Z" fill="#252122"/>
<path d="M19.5202 11.8764C19.5615 11.882 19.6071 11.8883 19.6568 11.8951C19.7062 11.9036 19.7596 11.913 19.8167 11.9229C19.8736 11.9327 19.9343 11.9431 19.9982 11.9541C20.0537 11.9633 20.1112 11.9767 20.171 11.9892L21.889 8.47503C21.8038 8.46174 21.7193 8.44854 21.6366 8.43562C21.5799 8.42719 21.524 8.4175 21.4684 8.41055C21.4128 8.40382 21.3579 8.39716 21.3036 8.39059C21.1953 8.37774 21.09 8.3652 20.9882 8.35311C20.8861 8.34436 20.7874 8.3359 20.6927 8.32778C20.5979 8.32052 20.5076 8.31095 20.4211 8.30684C20.3348 8.30261 20.2528 8.29857 20.1759 8.29478C20.099 8.29115 20.0271 8.28777 19.9606 8.28461C19.894 8.28354 19.8329 8.28256 19.7777 8.28168C19.7 8.28073 19.6341 8.27994 19.5812 8.27931C19.4974 8.2783 19.428 8.34382 19.424 8.42757L19.2673 11.6984C19.2634 11.779 19.3216 11.8492 19.4015 11.8601C19.4356 11.8648 19.4752 11.8703 19.5202 11.8764Z" fill="#252122"/>
<path d="M24.1377 13.6775C24.1839 13.7111 24.2276 13.7429 24.2688 13.7729C24.3099 13.8024 24.3485 13.83 24.3842 13.8555C24.3996 13.8661 24.4251 13.8855 24.4459 13.9009C24.4673 13.9169 24.4878 13.9322 24.5071 13.9467C24.5494 13.9782 24.5867 14.0061 24.6187 14.0299C24.6906 14.0835 24.7926 14.0654 24.8418 13.9904L27.0848 10.5737C27.1341 10.4988 27.1102 10.3979 27.0324 10.3533C26.9978 10.3335 26.9574 10.3103 26.9117 10.2841C26.8907 10.272 26.8686 10.2593 26.8453 10.246C26.82 10.2317 26.7936 10.2167 26.766 10.2011C26.7022 10.1659 26.6332 10.128 26.5594 10.0873C26.4857 10.0471 26.4071 10.0044 26.3244 9.95923C26.2455 9.91972 26.1627 9.8782 26.0762 9.83484C25.9893 9.79246 25.9007 9.74531 25.8057 9.70253C25.7111 9.6592 25.6134 9.61439 25.5129 9.56831C25.4131 9.5212 25.3077 9.47841 25.2008 9.4335C25.0934 9.38955 24.9854 9.34148 24.8726 9.29907C24.844 9.28824 24.815 9.27728 24.7862 9.26636L23.8185 13.4663C23.872 13.4999 23.9224 13.5355 23.972 13.5677C24.0298 13.606 24.0851 13.6426 24.1377 13.6775Z" fill="#252122"/>
<path d="M16.5085 11.8593C16.5518 11.8535 16.5944 11.8465 16.6368 11.842C16.6793 11.8377 16.7213 11.8334 16.7626 11.8292C16.8452 11.8206 16.9255 11.8123 17.0032 11.8042C17.0812 11.799 17.1565 11.7939 17.2288 11.7891C17.2648 11.7866 17.3001 11.7842 17.3347 11.7819C17.3691 11.7795 17.4036 11.7766 17.4331 11.7766C17.494 11.775 17.5519 11.7735 17.6061 11.7721C17.6603 11.7704 17.7109 11.7687 17.7577 11.7673C17.8155 11.7669 17.8685 11.7665 17.9164 11.7662C17.9691 11.7659 18.0158 11.7657 18.0556 11.7655C18.1453 11.765 18.2158 11.689 18.2099 11.5995L18.008 8.5184C18.0021 8.4289 17.9223 8.36281 17.8334 8.37405C17.7938 8.37904 17.7476 8.38488 17.6953 8.39148C17.6468 8.39764 17.593 8.40449 17.5346 8.41194C17.4655 8.42221 17.3907 8.43326 17.3109 8.4451C17.2313 8.45723 17.1465 8.47014 17.0572 8.48375C17.0114 8.4902 16.9694 8.49875 16.9252 8.50709C16.8811 8.51549 16.8361 8.52411 16.79 8.53289C16.6982 8.55064 16.6025 8.56914 16.5034 8.58828C16.4051 8.61067 16.3034 8.63385 16.199 8.65763C16.1468 8.6696 16.094 8.68175 16.0405 8.69407C15.987 8.70658 15.9334 8.72186 15.8791 8.73591C15.7706 8.76481 15.6599 8.79433 15.5472 8.82433C15.4357 8.85796 15.3223 8.89213 15.2075 8.92674C15.1503 8.94446 15.0925 8.96116 15.035 8.98008C14.9778 8.99963 14.9201 9.01924 14.8623 9.03897C14.8047 9.05874 14.7467 9.07857 14.6887 9.0985C14.6306 9.11827 14.5724 9.13813 14.5149 9.16077C14.3998 9.2047 14.2843 9.24882 14.1688 9.29293C14.0537 9.33796 13.9406 9.38786 13.8272 9.43507C13.7706 9.45916 13.714 9.4824 13.6581 9.50713C13.6026 9.53274 13.5473 9.55826 13.4922 9.58371C13.4372 9.60916 13.3824 9.63455 13.328 9.65978C13.2735 9.68498 13.2192 9.7098 13.1665 9.73718C13.0606 9.79061 12.9561 9.84342 12.8533 9.89533C12.7504 9.9469 12.6524 10.0038 12.555 10.0562C12.4581 10.1096 12.3628 10.1605 12.2729 10.2153C12.1825 10.2689 12.0946 10.3211 12.0095 10.3716C11.9242 10.4214 11.845 10.4751 11.7675 10.5237C11.6904 10.573 11.6166 10.6204 11.5464 10.6654C11.4778 10.7125 11.4126 10.7572 11.3513 10.7993C11.2903 10.8413 11.2331 10.8807 11.1803 10.9171C11.1275 10.9535 11.0807 10.9896 11.0377 11.0208C10.9794 11.0639 10.9296 11.1006 10.8893 11.1304C10.822 11.1801 10.8062 11.2739 10.8533 11.3431L12.1327 13.2241C12.1782 13.291 12.2672 13.312 12.3377 13.2722C12.3702 13.2539 12.4086 13.2322 12.4524 13.2075C12.4906 13.1864 12.5319 13.1614 12.5786 13.1372C12.6252 13.1128 12.6756 13.0866 12.7294 13.0586C12.7831 13.0305 12.8403 13.0006 12.9005 12.9692C12.9617 12.9398 13.0261 12.9089 13.0933 12.8767C13.1608 12.8452 13.2293 12.8092 13.3032 12.7778C13.3765 12.7456 13.4523 12.7124 13.5302 12.6782C13.6074 12.6426 13.6891 12.6116 13.7718 12.5784C13.8549 12.5462 13.9381 12.5098 14.0253 12.479C14.1121 12.4477 14.2004 12.4159 14.2898 12.3837C14.3341 12.3669 14.3797 12.3526 14.4254 12.338C14.471 12.3233 14.5168 12.3086 14.5628 12.2938C14.6087 12.2789 14.6548 12.264 14.7011 12.2491C14.7476 12.2349 14.7947 12.2223 14.8415 12.2088C14.9356 12.1828 15.0291 12.1539 15.1238 12.1297C15.2186 12.1063 15.3134 12.0828 15.4078 12.0595C15.4547 12.047 15.5022 12.0372 15.5496 12.0275C15.5968 12.0175 15.6439 12.0076 15.6909 11.9977C15.7377 11.9878 15.7843 11.9779 15.8307 11.968C15.8773 11.9588 15.924 11.9516 15.9702 11.9433C16.0624 11.9273 16.1536 11.9114 16.2433 11.8959C16.3333 11.8835 16.4218 11.8712 16.5085 11.8593Z" fill="#252122"/>
<path d="M7.78443 14.2914C7.75089 14.3388 7.71723 14.3865 7.6834 14.4343C7.64968 14.4821 7.61583 14.5301 7.58185 14.5783C7.54803 14.6265 7.51638 14.6765 7.48348 14.7257C7.41862 14.8248 7.35224 14.9231 7.2887 15.0232C7.22665 15.1243 7.16459 15.2253 7.10279 15.3259L7.05669 15.4013L7.01292 15.4778C6.98384 15.5288 6.95485 15.5796 6.92595 15.6301C6.80785 15.8307 6.70525 16.0358 6.60098 16.2306C6.55244 16.3299 6.50469 16.4276 6.45795 16.5232C6.43478 16.571 6.41182 16.6183 6.38918 16.6649C6.36786 16.7122 6.34683 16.759 6.32605 16.8052C6.28468 16.8973 6.24445 16.987 6.20551 17.0737C6.1692 17.1615 6.13408 17.2464 6.10039 17.3278C6.06736 17.4094 6.03398 17.4867 6.00552 17.5617C5.97745 17.6368 5.9508 17.708 5.92572 17.7749C5.90078 17.8418 5.87744 17.9043 5.85587 17.9622C5.83595 18.0206 5.81766 18.0743 5.80111 18.1227C5.77964 18.1865 5.7612 18.2412 5.74613 18.2859C5.71945 18.3651 5.76003 18.4509 5.83803 18.4808L7.02887 18.9374C7.10466 18.9664 7.19002 18.9325 7.22504 18.8593C7.24241 18.823 7.26315 18.7796 7.28699 18.7297C7.30676 18.6887 7.32862 18.6432 7.35246 18.5936C7.37778 18.5448 7.40516 18.492 7.43444 18.4356C7.46362 18.3793 7.49463 18.3194 7.52734 18.2562C7.56031 18.1933 7.59827 18.1287 7.63594 18.0605C7.67409 17.9926 7.71385 17.9219 7.75499 17.8487C7.79835 17.7769 7.84316 17.7027 7.88927 17.6263C7.91222 17.5882 7.9355 17.5496 7.95906 17.5105C7.98385 17.4721 8.00895 17.4333 8.03431 17.394C8.08502 17.3157 8.13685 17.2357 8.18955 17.1543C8.30153 16.9958 8.41104 16.8289 8.5348 16.6678C8.56502 16.6271 8.59537 16.5863 8.62581 16.5453L8.67144 16.4839L8.71925 16.4237C8.78292 16.3436 8.84683 16.2631 8.91075 16.1827C8.97583 16.1032 9.04338 16.0258 9.10903 15.9478C9.14232 15.909 9.17427 15.8695 9.20835 15.8318C9.24245 15.7942 9.27643 15.7567 9.31028 15.7193C9.34407 15.682 9.37771 15.6448 9.41118 15.6078C9.44434 15.5706 9.47781 15.5341 9.51258 15.4991C9.58098 15.4282 9.64856 15.3583 9.71503 15.2894C9.78138 15.2206 9.85063 15.1568 9.916 15.0924C9.98187 15.0284 10.0456 14.9652 10.1112 14.9073C10.1758 14.8486 10.2385 14.7915 10.2993 14.7362C10.3596 14.6805 10.4216 14.6309 10.479 14.5811C10.5367 14.5319 10.592 14.4848 10.6446 14.44C10.6963 14.3991 10.7453 14.3603 10.7914 14.3238C10.8372 14.2874 10.88 14.2532 10.9196 14.2216C10.9378 14.2066 10.9625 14.1886 10.9833 14.1728C11.0046 14.1567 11.025 14.1413 11.0443 14.1267C11.0864 14.0949 11.1236 14.0669 11.1554 14.0429C11.227 13.9889 11.2381 13.8859 11.1798 13.8177L9.82401 12.2293C9.76578 12.1611 9.66229 12.1558 9.59772 12.2181C9.56901 12.2457 9.53544 12.278 9.49748 12.3146C9.48005 12.3314 9.46167 12.3491 9.44241 12.3676C9.4228 12.3867 9.40414 12.404 9.37982 12.4289C9.33334 12.4758 9.2831 12.5265 9.22938 12.5807C9.17595 12.6349 9.11907 12.6926 9.05911 12.7534C9.00337 12.8138 8.94476 12.8773 8.88362 12.9435C8.82324 13.0102 8.75813 13.0775 8.69513 13.1512C8.63188 13.2245 8.56651 13.3003 8.49928 13.3782C8.43122 13.4552 8.36538 13.5379 8.29764 13.6218C8.23041 13.7062 8.15955 13.7903 8.09194 13.8795C8.02452 13.9687 7.95599 14.0594 7.88665 14.1512C7.8514 14.1967 7.81771 14.2437 7.78443 14.2914Z" fill="#252122"/>
<path d="M5.32068 19.8604C5.31276 19.8994 5.30347 19.9451 5.29296 19.9968C5.28333 20.0442 5.27265 20.0968 5.26103 20.154C5.24963 20.2125 5.23848 20.2815 5.22604 20.352C5.21379 20.4232 5.20078 20.4989 5.18707 20.5787C5.18044 20.6185 5.17286 20.6596 5.16658 20.7011C5.16099 20.7423 5.1553 20.7844 5.14946 20.8274C5.12723 20.9996 5.09796 21.1849 5.08109 21.3828C5.07131 21.4815 5.06126 21.5827 5.051 21.6863C5.04254 21.7899 5.03688 21.8961 5.02959 22.0037C5.01254 22.2188 5.00941 22.4419 5.00231 22.6676L5 22.7524L5.00041 22.8375C5.00073 22.8944 5.00104 22.9514 5.00136 23.0085C5.00171 23.0656 5.00205 23.1227 5.00237 23.1799L5.00291 23.2657L5.00619 23.3516C5.01083 23.4658 5.01547 23.5801 5.02012 23.6939L5.02362 23.779L5.02469 23.8066L5.02621 23.8271L5.02924 23.8681C5.03328 23.9228 5.03729 23.9774 5.04131 24.0317C5.04532 24.086 5.04933 24.1401 5.05327 24.194C5.05874 24.2501 5.06414 24.3061 5.06957 24.3616C5.07503 24.4172 5.08046 24.4723 5.08586 24.5271C5.08858 24.5544 5.09129 24.5817 5.09401 24.6088C5.09739 24.6356 5.10077 24.6622 5.10412 24.6887C5.11757 24.7945 5.1308 24.8985 5.14375 25.0004C5.15938 25.1018 5.17466 25.2011 5.1895 25.2976C5.2034 25.3942 5.2213 25.4875 5.23776 25.5778C5.23912 25.5851 5.24047 25.5922 5.2418 25.5994C5.25554 25.6732 5.31977 25.7267 5.39483 25.7267H5.81455C5.90417 25.7267 5.97528 25.6512 5.97001 25.5618C5.96859 25.5379 5.96713 25.5138 5.96552 25.4894C5.96028 25.4024 5.95397 25.3127 5.95195 25.22C5.94891 25.1276 5.94582 25.0326 5.94263 24.9355C5.94203 24.8385 5.94143 24.7394 5.94083 24.6386C5.94067 24.6134 5.94051 24.5881 5.94036 24.5628C5.94089 24.5378 5.94146 24.5127 5.94203 24.4874C5.94313 24.4372 5.94424 24.3865 5.94538 24.3355C5.94648 24.2846 5.94762 24.2334 5.94876 24.1819C5.95128 24.128 5.95378 24.0737 5.95633 24.0194C5.95886 23.9649 5.96142 23.9103 5.96395 23.8555L5.96587 23.8144L5.96682 23.7938L5.96695 23.7912C5.96695 23.7847 5.96707 23.7972 5.96713 23.7951L5.96751 23.7901L5.9683 23.7802L5.97468 23.7005C5.98315 23.5942 5.99164 23.4877 6.00017 23.381L6.00667 23.3012L6.01586 23.2216C6.02199 23.1686 6.02808 23.1157 6.03418 23.0629C6.04024 23.0101 6.0463 22.9574 6.05233 22.9049L6.06133 22.8263L6.07299 22.7483C6.10494 22.5408 6.1321 22.3367 6.17189 22.1413C6.19056 22.0434 6.20726 21.9471 6.22643 21.8534C6.2473 21.76 6.2677 21.6686 6.28757 21.5797C6.32432 21.4016 6.37198 21.236 6.41075 21.0825C6.4207 21.0441 6.43043 21.0066 6.43993 20.97C6.44998 20.9339 6.46081 20.8997 6.47079 20.8659C6.4909 20.7985 6.51001 20.7346 6.52794 20.6745C6.54629 20.614 6.56135 20.5598 6.57891 20.5054C6.59732 20.45 6.61419 20.3992 6.62947 20.3532C6.64608 20.3032 6.66076 20.2589 6.67333 20.221C6.7016 20.136 6.65224 20.0448 6.56559 20.0218L5.51341 19.7412C5.42673 19.718 5.33856 19.7725 5.32068 19.8604Z" fill="#252122"/>
<path d="M17.231 25.3139C17.5733 25.4813 17.9359 25.5606 18.2929 25.5606C19.1891 25.5606 20.0503 25.0613 20.4704 24.202C20.5513 24.0366 20.6139 23.8539 20.6546 23.682L23.1044 13.0488L24.0374 8.99936L24.6154 6.49083C24.6826 6.19888 24.4504 6 24.2174 6C24.081 6 23.9444 6.06818 23.8673 6.22573L22.6912 8.6315L20.9561 12.1805L16.119 22.0745C15.5315 23.2761 16.0294 24.7265 17.231 25.3139ZM18.3827 21.8897C19.0383 21.8897 19.5697 22.4211 19.5697 23.0767C19.5697 23.7322 19.0383 24.2637 18.3827 24.2637C17.7272 24.2637 17.1957 23.7322 17.1957 23.0767C17.1957 22.421 17.7272 21.8897 18.3827 21.8897Z" fill="#252122"/>
</svg>
