<svg width="40" height="40" viewBox="0 0 40 40" fill="none" xmlns="http://www.w3.org/2000/svg">
<circle cx="20" cy="20" r="20" fill="#E7EDF4"/>
<g clip-path="url(#clip0)">
<path d="M15.8784 33.2054V32.1619H17.2424C17.6821 32.1619 18.037 31.807 18.037 31.3673V30.3079C18.037 29.8682 17.6821 29.5133 17.2424 29.5133H15.8784V27.842C16.8424 27.6672 17.7562 27.3017 18.572 26.7614C17.6105 26.3853 16.7259 25.8264 15.9578 25.0954C15.497 25.2411 15.0043 25.3179 14.4931 25.31C11.9717 25.2782 9.91639 23.2255 9.88196 20.7041C9.84752 18.2409 11.7333 16.2015 14.1356 15.987C14.5329 15.0917 15.097 14.268 15.8095 13.5529C15.8465 13.5158 15.8837 13.4814 15.9181 13.447C15.4731 13.3622 15.0149 13.3198 14.5514 13.3198C12.5968 13.3198 10.7586 14.08 9.37608 15.4625C8.02 16.8239 7.2625 18.6223 7.23602 20.5372C7.20953 22.4972 7.97233 24.3936 9.34959 25.7867C10.4196 26.8673 11.7651 27.5745 13.2298 27.842V29.5133H11.8657C11.4261 29.5133 11.0712 29.8682 11.0712 30.3079V31.3673C11.0712 31.807 11.4261 32.1619 11.8657 32.1619H13.2298V33.2054C13.2298 33.6451 13.5847 34 14.0243 34H15.0838C15.5235 34 15.8784 33.6451 15.8784 33.2054Z" fill="black"/>
<path d="M18.9931 16.742C18.6806 17.0545 18.4342 17.4147 18.2595 17.8041C18.8633 18.5907 19.2235 19.576 19.2235 20.6434C19.2235 21.0566 19.1679 21.4591 19.0673 21.8405C19.7294 22.4656 20.5902 22.8099 21.5066 22.8099C21.5199 22.8099 21.5358 22.8099 21.549 22.8099C21.7636 22.1186 21.8748 21.3903 21.8748 20.6434C21.8748 18.9112 21.2762 17.2691 20.177 15.958C19.74 16.1328 19.3374 16.3977 18.9931 16.742Z" fill="black"/>
<path d="M26.3164 11.6486H27.2408L25.5271 13.3622C24.3512 12.5571 22.9633 12.1227 21.5093 12.1227C19.8433 12.1227 18.2621 12.6895 16.9907 13.7357C16.8106 13.884 16.6332 14.0429 16.4663 14.2124C15.9313 14.7474 15.4916 15.354 15.1553 16.0108C14.6467 17.004 14.3766 18.1085 14.3766 19.2553C14.3766 21.1596 15.1182 22.9501 16.4663 24.2982C16.604 24.4359 16.7444 24.5658 16.8901 24.6876C17.6449 25.3312 18.5163 25.8053 19.4513 26.086C20.1107 26.2847 20.8021 26.3853 21.5092 26.3853C23.4135 26.3853 25.204 25.6437 26.5521 24.2956C27.8976 22.9501 28.6418 21.157 28.6418 19.2527C28.6418 17.7986 28.2075 16.4081 27.4023 15.2348L29.1159 13.5211V14.4455C29.1159 14.8852 29.4708 15.2401 29.9105 15.2401H30.9699C31.4096 15.2401 31.7645 14.8852 31.7645 14.4455V10.3243V10.3216C31.7645 9.97733 31.6241 9.63566 31.3805 9.38934C31.1368 9.14567 30.7951 9 30.4508 9C30.4481 9 30.4455 9 30.4429 9H26.3164C25.8767 9 25.5218 9.35491 25.5218 9.79458V10.854C25.5219 11.2937 25.8767 11.6486 26.3164 11.6486ZM24.677 22.423C23.8294 23.2706 22.7038 23.7367 21.5066 23.7367C21.4033 23.7367 21.3 23.7341 21.1967 23.7262C20.2856 23.6653 19.4275 23.3289 18.7176 22.7621C18.5852 22.6561 18.4607 22.5449 18.3389 22.4231C16.8954 20.9796 16.6438 18.7919 17.5841 17.0888C17.7827 16.7286 18.0343 16.3896 18.3389 16.085C18.6832 15.7407 19.0752 15.4573 19.499 15.2454C20.1134 14.9355 20.7994 14.7713 21.5066 14.7713C22.7038 14.7713 23.8294 15.2375 24.677 16.085C26.425 17.833 26.425 20.6776 24.677 22.423Z" fill="black"/>
</g>
<defs>
<clipPath id="clip0">
<rect width="25" height="25" fill="white" transform="translate(7 9)"/>
</clipPath>
</defs>
</svg>
