<svg width="56" height="54" viewBox="0 0 56 54" fill="none" xmlns="http://www.w3.org/2000/svg">
<path d="M32.3386 25.3035H45.2481C45.4488 25.3035 45.6413 25.2267 45.7832 25.09C45.9252 24.9534 46.0049 24.768 46.0049 24.5748C46.0007 23.4482 45.5327 22.3692 44.7035 21.5744C43.8743 20.7796 42.7517 20.3337 41.5816 20.3347H32.3386C31.8536 20.3353 31.3886 20.5211 31.0457 20.8515C30.7027 21.1818 30.5099 21.6296 30.5095 22.0966V23.5233C30.5037 23.797 30.5668 24.0679 30.6934 24.313C30.8201 24.558 31.0065 24.7699 31.2368 24.9304C31.5468 25.1761 31.9371 25.3083 32.3386 25.3035ZM44.39 23.8461H32.3386C32.3134 23.8492 32.2879 23.8471 32.2636 23.84C32.2393 23.8328 32.2169 23.8208 32.1979 23.8046C32.1684 23.7795 32.137 23.7566 32.104 23.7361C32.0752 23.7085 32.053 23.6751 32.039 23.6384C32.0251 23.6016 32.0196 23.5623 32.023 23.5233V22.0966C32.0226 22.0566 32.0305 22.0169 32.0462 21.9798C32.0619 21.9427 32.0852 21.909 32.1145 21.8806C32.1439 21.8523 32.1788 21.8299 32.2173 21.8146C32.2558 21.7994 32.297 21.7917 32.3386 21.792H41.5816C42.2186 21.7915 42.8382 21.9922 43.3455 22.3632C43.8527 22.7342 44.2196 23.2551 44.39 23.8461Z" fill="white"/>
<path d="M13.5021 40.7561H36.0216C36.1663 40.7561 36.3079 40.7161 36.4297 40.6409C36.5514 40.5658 36.6483 40.4586 36.7088 40.3321L37.7546 38.1461H53.7297C53.8369 38.1461 53.9428 38.1242 54.0405 38.0819C54.1382 38.0396 54.2254 37.9778 54.2965 37.9006C54.3675 37.8234 54.4207 37.7325 54.4525 37.634C54.4844 37.5355 54.4942 37.4316 54.4812 37.3292C53.1538 26.7637 45.8239 24.0043 45.5121 23.8928C45.3263 23.8334 45.1238 23.8457 44.9472 23.9271C44.7706 24.0085 44.6336 24.1526 44.565 24.3292C44.4964 24.5057 44.5016 24.701 44.5794 24.874C44.6573 25.047 44.8017 25.1842 44.9824 25.2568C45.2571 25.3574 51.3997 27.7175 52.8632 36.6888H37.2741C37.1295 36.6888 36.9879 36.7286 36.8662 36.8037C36.7444 36.8787 36.6475 36.9857 36.5869 37.1121L35.5411 39.2981H13.5043C13.3036 39.2981 13.1111 39.3749 12.9692 39.5115C12.8273 39.6482 12.7476 39.8335 12.7476 40.0267C12.7476 40.22 12.8273 40.4053 12.9692 40.542C13.1111 40.6786 13.3036 40.7554 13.5043 40.7554L13.5021 40.7561Z" fill="white"/>
<path d="M8.8012 29.2265C8.95784 29.2265 9.11061 29.1796 9.23843 29.0925C9.36624 29.0053 9.46282 28.8821 9.51482 28.7398C10.4329 26.334 11.8751 24.1451 13.7443 22.3203C14.5148 21.5362 15.35 20.8134 16.2416 20.1591C16.3208 20.1012 16.3872 20.0288 16.4373 19.9461C16.4873 19.8634 16.52 19.7721 16.5334 19.6772C16.5604 19.4857 16.5073 19.2917 16.3858 19.1379C16.2643 18.9841 16.0843 18.883 15.8854 18.857C15.6865 18.831 15.485 18.8821 15.3252 18.9991C14.3687 19.7 13.4728 20.4745 12.6463 21.3148C10.6291 23.2884 9.07396 25.6549 8.0853 28.2552C8.04499 28.3651 8.03265 28.4827 8.04932 28.5982C8.06598 28.7136 8.11117 28.8235 8.18108 28.9187C8.25098 29.0138 8.34358 29.0915 8.45109 29.145C8.5586 29.1986 8.67788 29.2265 8.79893 29.2265H8.8012Z" fill="white"/>
<path d="M25.6721 37.2979C26.3991 37.297 27.1235 37.2156 27.8311 37.0553C29.7171 36.6383 31.3868 35.5876 32.5404 34.0918C33.6091 32.5857 34.1611 30.7952 34.1189 28.9716C34.0767 27.148 33.4424 25.3829 32.3051 23.9241C32.2481 23.8434 32.1749 23.7745 32.0898 23.7216C32.0047 23.6686 31.9094 23.6327 31.8095 23.6159C31.7097 23.5991 31.6074 23.6018 31.5087 23.6237C31.4099 23.6457 31.3168 23.6866 31.2348 23.7439C31.1527 23.8012 31.0835 23.8738 31.0312 23.9573C30.9788 24.0409 30.9444 24.1337 30.9301 24.2303C30.9157 24.3269 30.9216 24.4253 30.9475 24.5197C30.9734 24.614 31.0186 24.7024 31.0807 24.7796C32.0315 25.9911 32.5646 27.4588 32.6054 28.9769C32.6461 30.4949 32.1923 31.9872 31.3077 33.2444C30.362 34.4488 29.0075 35.2956 27.48 35.6373C24.3289 36.3441 21.4176 35.2548 18.8288 32.3984C15.4112 28.6232 18.8704 22.8807 21.236 19.7926C21.4605 19.5 21.6026 19.1565 21.6485 18.7953C21.6943 18.4342 21.6423 18.0678 21.4976 17.7318C21.3529 17.3957 21.1203 17.1014 20.8225 16.8775C20.5247 16.6536 20.1719 16.5076 19.7982 16.4539C19.6382 16.4294 19.4743 16.4549 19.3305 16.5268C19.307 16.5384 19.2662 16.5617 19.2442 16.5756C19.1574 16.6188 19.0805 16.6783 19.0181 16.7506C18.9556 16.8229 18.9089 16.9066 18.8807 16.9966C18.8524 17.0867 18.8433 17.1813 18.8537 17.2748C18.8642 17.3683 18.894 17.4589 18.9415 17.5411C19.0138 17.67 19.1245 17.7753 19.2593 17.8433C19.3941 17.9113 19.547 17.939 19.6983 17.9229C19.7892 17.9536 19.8722 18.0026 19.942 18.0665C20.0118 18.1304 20.0667 18.2079 20.1031 18.2938C20.148 18.3967 20.164 18.5091 20.1496 18.6199C20.1351 18.7306 20.0906 18.8358 20.0207 18.9248C17.3841 22.3641 13.5769 28.8112 17.6898 33.3522C20.4747 36.433 23.3322 37.2979 25.6721 37.2979Z" fill="white"/>
<path d="M13.3264 40.7561H16.8952C17.0371 40.7563 17.1761 40.7182 17.2965 40.6461C17.417 40.5739 17.5139 40.4707 17.5763 40.348C18.1684 39.1923 18.4753 37.9205 18.4731 36.6319C18.4713 34.3619 17.5341 32.1854 15.8672 30.5802C14.2004 28.975 11.9402 28.0722 9.5827 28.0701C7.90757 28.0645 6.26557 28.5193 4.84959 29.3812C3.43362 30.243 2.30249 31.476 1.58908 32.9354C1.50533 33.1037 1.49185 33.2965 1.55141 33.4741C1.61097 33.6517 1.73903 33.8006 1.9092 33.8899L4.52152 35.2598C4.61411 35.3086 4.71629 35.3383 4.82149 35.3468C4.9267 35.3554 5.03259 35.3426 5.13237 35.3094C5.23215 35.2762 5.32362 35.2233 5.40087 35.154C5.47813 35.0847 5.53948 35.0006 5.58098 34.9071C5.9185 34.1551 6.47777 33.5149 7.1895 33.066C7.90123 32.6171 8.73413 32.3791 9.58497 32.3816C10.7543 32.3831 11.8753 32.8311 12.7021 33.6274C13.5289 34.4236 13.9939 35.503 13.9953 36.6289C13.9959 37.7082 13.5619 38.7457 12.7845 39.5232C12.6819 39.6263 12.613 39.7561 12.5864 39.8966C12.5597 40.0371 12.5766 40.182 12.6348 40.3134C12.693 40.4447 12.79 40.5567 12.9138 40.6354C13.0375 40.7141 13.1826 40.7561 13.3309 40.7561H13.3264ZM16.4071 39.2988H14.8066C15.2669 38.4787 15.5075 37.5611 15.5066 36.6289C15.5048 35.1166 14.8801 33.6667 13.7696 32.5973C12.659 31.5279 11.1533 30.9262 9.5827 30.9243C8.57638 30.9222 7.58646 31.1696 6.70815 31.6425C5.82985 32.1155 5.09272 32.7981 4.56768 33.6247L3.29254 32.9558C3.94105 31.9074 4.86238 31.0401 5.96551 30.4395C7.06865 29.8389 8.31543 29.5258 9.5827 29.5311C11.538 29.5334 13.4124 30.2824 14.7949 31.6137C16.1774 32.945 16.9551 34.7499 16.9573 36.6326C16.959 37.5476 16.772 38.4539 16.4071 39.2988Z" fill="white"/>
<path d="M9.6367 42.3286C10.8073 42.3286 11.9516 41.9944 12.9249 41.3682C13.8982 40.742 14.6568 39.8519 15.1048 38.8106C15.5527 37.7693 15.6699 36.6234 15.4416 35.518C15.2132 34.4125 14.6495 33.3971 13.8218 32.6001C12.994 31.8031 11.9395 31.2603 10.7914 31.0404C9.64327 30.8205 8.45324 30.9334 7.37176 31.3647C6.29027 31.796 5.36592 32.5265 4.71557 33.4636C4.06523 34.4008 3.71811 35.5026 3.71811 36.6298C3.71991 38.1406 4.34406 39.5892 5.45362 40.6575C6.56318 41.7259 8.06755 42.3269 9.6367 42.3286ZM9.6367 32.3882C10.5079 32.3882 11.3596 32.637 12.084 33.1031C12.8084 33.5691 13.3731 34.2316 13.7065 35.0066C14.0399 35.7816 14.1271 36.6345 13.9571 37.4572C13.7872 38.28 13.3676 39.0358 12.7516 39.629C12.1355 40.2221 11.3506 40.6261 10.4961 40.7898C9.64159 40.9534 8.75587 40.8694 7.95095 40.5484C7.14603 40.2274 6.45805 39.6837 5.97401 38.9862C5.48997 38.2887 5.23162 37.4686 5.23162 36.6298C5.23282 35.5052 5.69731 34.427 6.52316 33.6318C7.34902 32.8366 8.46877 32.3894 9.6367 32.3882Z" fill="white"/>
<path d="M9.63657 39.5751C10.2415 39.5751 10.8329 39.4023 11.3359 39.0787C11.839 38.7551 12.231 38.2951 12.4625 37.7569C12.694 37.2187 12.7546 36.6266 12.6366 36.0552C12.5186 35.4839 12.2272 34.9591 11.7995 34.5472C11.3717 34.1353 10.8267 33.8548 10.2333 33.7412C9.63996 33.6275 9.02494 33.6858 8.46601 33.9088C7.90709 34.1317 7.42937 34.5092 7.09326 34.9935C6.75716 35.4779 6.57776 36.0473 6.57776 36.6298C6.57856 37.4107 6.90109 38.1594 7.47455 38.7116C8.04801 39.2637 8.82557 39.5743 9.63657 39.5751ZM9.63657 35.1419C9.9422 35.1419 10.241 35.2292 10.4951 35.3927C10.7492 35.5561 10.9473 35.7885 11.0642 36.0604C11.1812 36.3323 11.2118 36.6315 11.1522 36.9201C11.0925 37.2087 10.9454 37.4738 10.7293 37.6819C10.5131 37.89 10.2378 38.0317 9.93804 38.0891C9.63828 38.1466 9.32757 38.1171 9.04521 38.0045C8.76284 37.8919 8.5215 37.7012 8.3517 37.4565C8.1819 37.2118 8.09127 36.9241 8.09127 36.6298C8.09167 36.2353 8.25461 35.8571 8.54432 35.5781C8.83403 35.2992 9.22685 35.1423 9.63657 35.1419Z" fill="white"/>
<path d="M44.7017 42.3351C46.1076 42.3337 47.467 41.8503 48.5363 40.9714C49.6056 40.0926 50.3149 38.8757 50.537 37.539C50.5564 37.4435 50.5557 37.3451 50.5349 37.2499C50.5141 37.1546 50.4737 37.0643 50.4161 36.9843C50.3584 36.9043 50.2848 36.8362 50.1993 36.7841C50.1139 36.732 50.0185 36.6969 49.9188 36.6808C49.8191 36.6648 49.717 36.6682 49.6186 36.6908C49.5203 36.7134 49.4276 36.7547 49.3462 36.8124C49.2647 36.87 49.196 36.9428 49.1442 37.0265C49.0925 37.1101 49.0586 37.2029 49.0447 37.2993C48.8783 38.2951 48.3489 39.2013 47.5515 39.8553C46.7541 40.5094 45.7409 40.8687 44.6934 40.8687C43.6459 40.8687 42.6326 40.5094 41.8352 39.8553C41.0378 39.2013 40.5085 38.2951 40.342 37.2993C40.3281 37.2029 40.2942 37.1101 40.2425 37.0265C40.1907 36.9428 40.122 36.87 40.0406 36.8124C39.9591 36.7547 39.8664 36.7134 39.7681 36.6908C39.6697 36.6682 39.5677 36.6648 39.4679 36.6808C39.3682 36.6969 39.2728 36.732 39.1874 36.7841C39.102 36.8362 39.0283 36.9043 38.9706 36.9843C38.913 37.0643 38.8726 37.1546 38.8518 37.2499C38.8311 37.3451 38.8303 37.4435 38.8497 37.539C39.0744 38.8775 39.7867 40.0952 40.859 40.974C41.9313 41.8528 43.2936 42.3353 44.7017 42.3351Z" fill="white"/>
<path d="M44.7016 39.5728C45.3193 39.5686 45.9214 39.3858 46.4298 39.0479C46.9381 38.7101 47.3292 38.2329 47.5523 37.6782C47.5966 37.5678 47.6122 37.4487 47.5979 37.3312C47.5836 37.2137 47.5398 37.1013 47.4703 37.0037C47.4008 36.9061 47.3077 36.8263 47.1989 36.7712C47.0902 36.7161 46.9692 36.6873 46.8463 36.6873H42.5562C42.4346 36.6873 42.3148 36.7155 42.207 36.7695C42.0991 36.8235 42.0064 36.9018 41.9366 36.9977C41.8668 37.0935 41.822 37.2042 41.8061 37.3202C41.7901 37.4363 41.8034 37.5543 41.8449 37.6644C42.0611 38.2257 42.451 38.7096 42.9618 39.0508C43.4726 39.392 44.0799 39.5742 44.7016 39.5728Z" fill="white"/>
<path d="M15.7081 20.3047C18.3371 20.3047 20.4756 18.6521 20.4756 16.6214C20.4756 14.5906 18.3363 12.9373 15.7081 12.9373C15.5074 12.9373 15.3149 13.014 15.173 13.1507C15.0311 13.2873 14.9513 13.4727 14.9513 13.6659V19.5761C14.9513 19.7693 15.0311 19.9547 15.173 20.0913C15.3149 20.228 15.5074 20.3047 15.7081 20.3047ZM16.4648 14.458C17.8785 14.6984 18.9621 15.5918 18.9621 16.6214C18.9621 17.651 17.8777 18.5436 16.4648 18.784V14.458Z" fill="white"/>
<path d="M19.6758 17.9068C19.8293 17.9069 19.9791 17.862 20.1055 17.7782C20.2319 17.6944 20.3288 17.5756 20.3834 17.4375L22.1277 13.043H24.0438C24.2445 13.043 24.437 12.9662 24.5789 12.8296C24.7209 12.6929 24.8006 12.5076 24.8006 12.3144C24.8006 12.1211 24.7209 11.9358 24.5789 11.7991C24.437 11.6625 24.2445 11.5857 24.0438 11.5857H21.6071C21.4539 11.5857 21.3042 11.6305 21.178 11.7142C21.0518 11.7978 20.955 11.9164 20.9003 12.0542L18.9698 16.9151C18.9254 17.0255 18.9096 17.1447 18.9238 17.2623C18.938 17.38 18.9818 17.4925 19.0513 17.5901C19.1209 17.6878 19.2141 17.7677 19.3229 17.8229C19.4317 17.878 19.5529 17.9069 19.6758 17.9068Z" fill="white"/>
<path d="M38.6081 38.1532C38.7549 38.1531 38.8986 38.1118 39.0215 38.0345C39.1444 37.9571 39.2413 37.847 39.3003 37.7175C39.3593 37.5881 39.378 37.4449 39.354 37.3054C39.33 37.1659 39.2643 37.0362 39.1651 36.932C37.8521 35.5534 35.9867 32.8814 36.5633 31.5771C36.9364 30.7369 38.4197 30.5329 39.5979 30.5103C47.1579 30.3522 51.7461 37.7189 51.7916 37.7933C51.893 37.96 52.0591 38.0812 52.2533 38.13C52.4476 38.1789 52.654 38.1515 52.8272 38.0538C53.0004 37.9561 53.1262 37.7961 53.1769 37.6091C53.2277 37.4221 53.1992 37.2234 53.0977 37.0566C52.8972 36.7243 48.066 28.9087 39.5677 29.053C37.2043 29.0989 35.7249 29.7554 35.1709 31.0051C34.0237 33.5925 37.6349 37.4829 38.0511 37.9179C38.122 37.9921 38.2081 38.0513 38.304 38.0918C38.3998 38.1323 38.5034 38.1532 38.6081 38.1532Z" fill="white"/>
</svg>
