<svg width="56" height="54" viewBox="0 0 56 54" fill="none" xmlns="http://www.w3.org/2000/svg">
<path d="M23.6614 25.3035H10.7519C10.5512 25.3035 10.3587 25.2267 10.2168 25.09C10.0748 24.9534 9.99512 24.768 9.99512 24.5748C9.99932 23.4482 10.4673 22.3692 11.2965 21.5744C12.1257 20.7796 13.2483 20.3337 14.4184 20.3347H23.6614C24.1464 20.3353 24.6114 20.5211 24.9543 20.8515C25.2973 21.1818 25.4901 21.6296 25.4905 22.0966V23.5233C25.4963 23.797 25.4332 24.0679 25.3066 24.313C25.1799 24.558 24.9935 24.7699 24.7632 24.9304C24.4532 25.1761 24.0629 25.3083 23.6614 25.3035ZM11.61 23.8461H23.6614C23.6866 23.8492 23.7121 23.8471 23.7364 23.84C23.7607 23.8328 23.7831 23.8208 23.8021 23.8046C23.8316 23.7795 23.863 23.7566 23.896 23.7361C23.9248 23.7085 23.947 23.6751 23.961 23.6384C23.9749 23.6016 23.9804 23.5623 23.977 23.5233V22.0966C23.9774 22.0566 23.9695 22.0169 23.9538 21.9798C23.9381 21.9427 23.9148 21.909 23.8855 21.8806C23.8561 21.8523 23.8212 21.8299 23.7827 21.8146C23.7442 21.7994 23.703 21.7917 23.6614 21.792H14.4184C13.7814 21.7915 13.1618 21.9922 12.6545 22.3632C12.1473 22.7342 11.7804 23.2551 11.61 23.8461Z" fill="white"/>
<path d="M42.4979 40.7561H19.9784C19.8337 40.7561 19.6921 40.7161 19.5703 40.6409C19.4486 40.5658 19.3517 40.4586 19.2912 40.3321L18.2454 38.1461H2.27026C2.16313 38.1461 2.05722 38.1242 1.95952 38.0819C1.86182 38.0396 1.77457 37.9778 1.70353 37.9006C1.6325 37.8234 1.5793 37.7325 1.54745 37.634C1.51561 37.5355 1.50584 37.4316 1.5188 37.3292C2.84616 26.7637 10.1761 24.0043 10.4879 23.8928C10.6737 23.8334 10.8762 23.8457 11.0528 23.9271C11.2294 24.0085 11.3664 24.1526 11.435 24.3292C11.5036 24.5057 11.4984 24.701 11.4206 24.874C11.3427 25.047 11.1983 25.1842 11.0176 25.2568C10.7429 25.3574 4.60032 27.7175 3.13675 36.6888H18.7259C18.8705 36.6888 19.0121 36.7286 19.1338 36.8037C19.2556 36.8787 19.3525 36.9857 19.4131 37.1121L20.4589 39.2981H42.4957C42.6964 39.2981 42.8889 39.3749 43.0308 39.5115C43.1727 39.6482 43.2524 39.8335 43.2524 40.0267C43.2524 40.22 43.1727 40.4053 43.0308 40.542C42.8889 40.6786 42.6964 40.7554 42.4957 40.7554L42.4979 40.7561Z" fill="white"/>
<path d="M47.1988 29.2265C47.0422 29.2265 46.8894 29.1796 46.7616 29.0925C46.6338 29.0053 46.5372 28.8821 46.4852 28.7398C45.5671 26.334 44.1249 24.1451 42.2557 22.3203C41.4852 21.5362 40.65 20.8134 39.7584 20.1591C39.6792 20.1012 39.6128 20.0288 39.5627 19.9461C39.5127 19.8634 39.48 19.7721 39.4666 19.6772C39.4396 19.4857 39.4927 19.2917 39.6142 19.1379C39.7357 18.9841 39.9157 18.883 40.1146 18.857C40.3135 18.831 40.515 18.8821 40.6748 18.9991C41.6313 19.7 42.5272 20.4745 43.3537 21.3148C45.3709 23.2884 46.926 25.6549 47.9147 28.2552C47.955 28.3651 47.9673 28.4827 47.9507 28.5982C47.934 28.7136 47.8888 28.8235 47.8189 28.9187C47.749 29.0138 47.6564 29.0915 47.5489 29.145C47.4414 29.1986 47.3221 29.2265 47.2011 29.2265H47.1988Z" fill="white"/>
<path d="M30.3279 37.2979C29.6009 37.297 28.8765 37.2156 28.1689 37.0553C26.2829 36.6383 24.6132 35.5876 23.4596 34.0918C22.3909 32.5857 21.8389 30.7952 21.8811 28.9716C21.9233 27.148 22.5576 25.3829 23.6949 23.9241C23.7519 23.8434 23.8251 23.7745 23.9102 23.7216C23.9953 23.6686 24.0906 23.6327 24.1905 23.6159C24.2903 23.5991 24.3926 23.6018 24.4913 23.6237C24.5901 23.6457 24.6832 23.6866 24.7652 23.7439C24.8473 23.8012 24.9165 23.8738 24.9688 23.9573C25.0212 24.0409 25.0556 24.1337 25.0699 24.2303C25.0843 24.3269 25.0784 24.4253 25.0525 24.5197C25.0266 24.614 24.9814 24.7024 24.9193 24.7796C23.9685 25.9911 23.4354 27.4588 23.3946 28.9769C23.3539 30.4949 23.8077 31.9872 24.6923 33.2444C25.638 34.4488 26.9925 35.2956 28.52 35.6373C31.6711 36.3441 34.5824 35.2548 37.1712 32.3984C40.5888 28.6232 37.1296 22.8807 34.764 19.7926C34.5395 19.5 34.3974 19.1565 34.3515 18.7953C34.3057 18.4342 34.3577 18.0678 34.5024 17.7318C34.6471 17.3957 34.8797 17.1014 35.1775 16.8775C35.4753 16.6536 35.8281 16.5076 36.2018 16.4539C36.3618 16.4294 36.5257 16.4549 36.6695 16.5268C36.693 16.5384 36.7338 16.5617 36.7558 16.5756C36.8426 16.6188 36.9195 16.6783 36.9819 16.7506C37.0444 16.8229 37.0911 16.9066 37.1193 16.9966C37.1476 17.0867 37.1567 17.1813 37.1463 17.2748C37.1358 17.3683 37.106 17.4589 37.0585 17.5411C36.9862 17.67 36.8755 17.7753 36.7407 17.8433C36.6059 17.9113 36.453 17.939 36.3017 17.9229C36.2108 17.9536 36.1278 18.0026 36.058 18.0665C35.9882 18.1304 35.9333 18.2079 35.8969 18.2938C35.852 18.3967 35.836 18.5091 35.8504 18.6199C35.8649 18.7306 35.9094 18.8358 35.9793 18.9248C38.6159 22.3641 42.4231 28.8112 38.3102 33.3522C35.5253 36.433 32.6678 37.2979 30.3279 37.2979Z" fill="white"/>
<path d="M42.6736 40.7561H39.1048C38.9629 40.7563 38.8239 40.7182 38.7035 40.6461C38.583 40.5739 38.4861 40.4707 38.4237 40.348C37.8316 39.1923 37.5247 37.9205 37.5269 36.6319C37.5287 34.3619 38.4659 32.1854 40.1328 30.5802C41.7996 28.975 44.0598 28.0722 46.4173 28.0701C48.0924 28.0645 49.7344 28.5193 51.1504 29.3812C52.5664 30.243 53.6975 31.476 54.4109 32.9354C54.4947 33.1037 54.5082 33.2965 54.4486 33.4741C54.389 33.6517 54.261 33.8006 54.0908 33.8899L51.4785 35.2598C51.3859 35.3086 51.2837 35.3383 51.1785 35.3468C51.0733 35.3554 50.9674 35.3426 50.8676 35.3094C50.7678 35.2762 50.6764 35.2233 50.5991 35.154C50.5219 35.0847 50.4605 35.0006 50.419 34.9071C50.0815 34.1551 49.5222 33.5149 48.8105 33.066C48.0988 32.6171 47.2659 32.3791 46.415 32.3816C45.2457 32.3831 44.1247 32.8311 43.2979 33.6274C42.4711 34.4236 42.0061 35.503 42.0047 36.6289C42.0041 37.7082 42.4381 38.7457 43.2155 39.5232C43.3181 39.6263 43.387 39.7561 43.4136 39.8966C43.4403 40.0371 43.4234 40.182 43.3652 40.3134C43.307 40.4447 43.21 40.5567 43.0862 40.6354C42.9625 40.7141 42.8174 40.7561 42.6691 40.7561H42.6736ZM39.5929 39.2988H41.1934C40.7331 38.4787 40.4925 37.5611 40.4934 36.6289C40.4952 35.1166 41.1199 33.6667 42.2304 32.5973C43.341 31.5279 44.8467 30.9262 46.4173 30.9243C47.4236 30.9222 48.4135 31.1696 49.2918 31.6425C50.1702 32.1155 50.9073 32.7981 51.4323 33.6247L52.7075 32.9558C52.059 31.9074 51.1376 31.0401 50.0345 30.4395C48.9313 29.8389 47.6846 29.5258 46.4173 29.5311C44.462 29.5334 42.5876 30.2824 41.2051 31.6137C39.8226 32.945 39.0449 34.7499 39.0427 36.6326C39.041 37.5476 39.228 38.4539 39.5929 39.2988Z" fill="white"/>
<path d="M46.3633 42.3286C45.1927 42.3286 44.0484 41.9944 43.0751 41.3682C42.1018 40.742 41.3432 39.8519 40.8952 38.8106C40.4473 37.7693 40.3301 36.6234 40.5584 35.518C40.7868 34.4125 41.3505 33.3971 42.1782 32.6001C43.006 31.8031 44.0605 31.2603 45.2086 31.0404C46.3567 30.8205 47.5468 30.9334 48.6282 31.3647C49.7097 31.796 50.6341 32.5265 51.2844 33.4636C51.9348 34.4008 52.2819 35.5026 52.2819 36.6298C52.2801 38.1406 51.6559 39.5892 50.5464 40.6575C49.4368 41.7259 47.9325 42.3269 46.3633 42.3286ZM46.3633 32.3882C45.4921 32.3882 44.6404 32.637 43.916 33.1031C43.1916 33.5691 42.6269 34.2316 42.2935 35.0066C41.9601 35.7816 41.8729 36.6345 42.0429 37.4572C42.2128 38.28 42.6324 39.0358 43.2484 39.629C43.8645 40.2221 44.6494 40.6261 45.5039 40.7898C46.3584 40.9534 47.2441 40.8694 48.049 40.5484C48.854 40.2274 49.542 39.6837 50.026 38.9862C50.51 38.2887 50.7684 37.4686 50.7684 36.6298C50.7672 35.5052 50.3027 34.427 49.4768 33.6318C48.651 32.8366 47.5312 32.3894 46.3633 32.3882Z" fill="white"/>
<path d="M46.3634 39.5751C45.7585 39.5751 45.1671 39.4023 44.6641 39.0787C44.161 38.7551 43.769 38.2951 43.5375 37.7569C43.306 37.2187 43.2454 36.6266 43.3634 36.0552C43.4814 35.4839 43.7728 34.9591 44.2005 34.5472C44.6283 34.1353 45.1733 33.8548 45.7667 33.7412C46.36 33.6275 46.9751 33.6858 47.534 33.9088C48.0929 34.1317 48.5706 34.5092 48.9067 34.9935C49.2428 35.4779 49.4222 36.0473 49.4222 36.6298C49.4214 37.4107 49.0989 38.1594 48.5254 38.7116C47.952 39.2637 47.1744 39.5743 46.3634 39.5751ZM46.3634 35.1419C46.0578 35.1419 45.759 35.2292 45.5049 35.3927C45.2508 35.5561 45.0527 35.7885 44.9358 36.0604C44.8188 36.3323 44.7882 36.6315 44.8478 36.9201C44.9075 37.2087 45.0546 37.4738 45.2707 37.6819C45.4869 37.89 45.7622 38.0317 46.062 38.0891C46.3617 38.1466 46.6724 38.1171 46.9548 38.0045C47.2372 37.8919 47.4785 37.7012 47.6483 37.4565C47.8181 37.2118 47.9087 36.9241 47.9087 36.6298C47.9083 36.2353 47.7454 35.8571 47.4557 35.5781C47.166 35.2992 46.7731 35.1423 46.3634 35.1419Z" fill="white"/>
<path d="M11.2983 42.3351C9.89242 42.3337 8.53299 41.8503 7.46367 40.9714C6.39436 40.0926 5.68508 38.8757 5.46297 37.539C5.44361 37.4435 5.44434 37.3451 5.46512 37.2499C5.48589 37.1546 5.52629 37.0643 5.58392 36.9843C5.64155 36.9043 5.71525 36.8362 5.80066 36.7841C5.88607 36.732 5.98146 36.6969 6.0812 36.6808C6.18094 36.6648 6.283 36.6682 6.38135 36.6908C6.47971 36.7134 6.57236 36.7547 6.65384 36.8124C6.73533 36.87 6.80398 36.9428 6.85576 37.0265C6.90753 37.1101 6.94138 37.2029 6.95529 37.2993C7.12174 38.2951 7.65111 39.2013 8.44849 39.8553C9.24587 40.5094 10.2591 40.8687 11.3066 40.8687C12.3541 40.8687 13.3674 40.5094 14.1648 39.8553C14.9622 39.2013 15.4915 38.2951 15.658 37.2993C15.6719 37.2029 15.7058 37.1101 15.7575 37.0265C15.8093 36.9428 15.878 36.87 15.9594 36.8124C16.0409 36.7547 16.1336 36.7134 16.2319 36.6908C16.3303 36.6682 16.4323 36.6648 16.5321 36.6808C16.6318 36.6969 16.7272 36.732 16.8126 36.7841C16.898 36.8362 16.9717 36.9043 17.0294 36.9843C17.087 37.0643 17.1274 37.1546 17.1482 37.2499C17.1689 37.3451 17.1697 37.4435 17.1503 37.539C16.9256 38.8775 16.2133 40.0952 15.141 40.974C14.0687 41.8528 12.7064 42.3353 11.2983 42.3351Z" fill="white"/>
<path d="M11.2984 39.5728C10.6807 39.5686 10.0786 39.3858 9.57027 39.0479C9.06191 38.7101 8.67079 38.2329 8.44771 37.6782C8.40347 37.5678 8.38782 37.4487 8.4021 37.3312C8.41639 37.2137 8.46018 37.1013 8.5297 37.0037C8.59922 36.9061 8.69237 36.8263 8.8011 36.7712C8.90984 36.7161 9.03088 36.6873 9.15377 36.6873H13.4438C13.5654 36.6873 13.6852 36.7155 13.7931 36.7695C13.9009 36.8235 13.9937 36.9018 14.0635 36.9977C14.1332 37.0935 14.178 37.2042 14.194 37.3202C14.2099 37.4363 14.1966 37.5543 14.1552 37.6644C13.9389 38.2257 13.5491 38.7096 13.0382 39.0508C12.5274 39.392 11.9201 39.5742 11.2984 39.5728Z" fill="white"/>
<path d="M40.2919 20.3047C37.6629 20.3047 35.5244 18.6521 35.5244 16.6214C35.5244 14.5906 37.6637 12.9373 40.2919 12.9373C40.4926 12.9373 40.6851 13.014 40.827 13.1507C40.9689 13.2873 41.0487 13.4727 41.0487 13.6659V19.5761C41.0487 19.7693 40.9689 19.9547 40.827 20.0913C40.6851 20.228 40.4926 20.3047 40.2919 20.3047ZM39.5352 14.458C38.1215 14.6984 37.0379 15.5918 37.0379 16.6214C37.0379 17.651 38.1223 18.5436 39.5352 18.784V14.458Z" fill="white"/>
<path d="M36.3242 17.9068C36.1707 17.9069 36.0209 17.862 35.8945 17.7782C35.7681 17.6944 35.6712 17.5756 35.6166 17.4375L33.8723 13.043H31.9562C31.7555 13.043 31.563 12.9662 31.4211 12.8296C31.2791 12.6929 31.1994 12.5076 31.1994 12.3144C31.1994 12.1211 31.2791 11.9358 31.4211 11.7991C31.563 11.6625 31.7555 11.5857 31.9562 11.5857H34.3929C34.5461 11.5857 34.6958 11.6305 34.822 11.7142C34.9482 11.7978 35.045 11.9164 35.0997 12.0542L37.0302 16.9151C37.0746 17.0255 37.0904 17.1447 37.0762 17.2623C37.062 17.38 37.0182 17.4925 36.9487 17.5901C36.8791 17.6878 36.7859 17.7677 36.6771 17.8229C36.5683 17.878 36.4471 17.9069 36.3242 17.9068Z" fill="white"/>
<path d="M17.3919 38.1532C17.2451 38.1531 17.1015 38.1118 16.9786 38.0345C16.8556 37.9571 16.7588 37.847 16.6997 37.7175C16.6407 37.5881 16.622 37.4449 16.646 37.3054C16.6701 37.1659 16.7357 37.0362 16.835 36.932C18.1479 35.5534 20.0133 32.8814 19.4367 31.5771C19.0636 30.7369 17.5804 30.5329 16.4021 30.5103C8.8421 30.3522 4.25388 37.7189 4.20848 37.7933C4.10702 37.96 3.94091 38.0812 3.7467 38.13C3.55248 38.1789 3.34606 38.1515 3.17285 38.0538C2.99965 37.9561 2.87384 37.7961 2.8231 37.6091C2.77236 37.4221 2.80086 37.2234 2.90231 37.0566C3.10285 36.7243 7.93399 28.9087 16.4324 29.053C18.7957 29.0989 20.2752 29.7554 20.8291 31.0051C21.9764 33.5925 18.3651 37.4829 17.9489 37.9179C17.878 37.9921 17.7919 38.0513 17.6961 38.0918C17.6002 38.1323 17.4966 38.1532 17.3919 38.1532Z" fill="white"/>
</svg>
