<svg width="168" height="57" viewBox="0 0 168 57" fill="none" xmlns="http://www.w3.org/2000/svg">
<rect x="0.315796" width="167.684" height="57" rx="5" fill="#212121"/>
<g clip-path="url(#clip0)">
<path fill-rule="evenodd" clip-rule="evenodd" d="M43.6997 27.6825C43.6685 24.1929 46.5408 22.4948 46.6729 22.4156C45.0456 20.0299 42.5243 19.7044 41.6383 19.678C39.5205 19.454 37.4664 20.9524 36.3873 20.9524C35.2869 20.9524 33.6264 19.7003 31.8351 19.7369C29.5315 19.772 27.3759 21.1141 26.1939 23.1973C23.7543 27.4456 25.574 33.6884 27.9108 37.1224C29.0802 38.8036 30.4461 40.6817 32.2347 40.6154C33.9841 40.543 34.6378 39.4939 36.749 39.4939C38.8409 39.4939 39.4548 40.6154 41.2786 40.5734C43.1568 40.543 44.3381 38.8842 45.4664 37.1874C46.8176 35.2599 47.3605 33.3615 47.3817 33.264C47.3379 33.2485 43.7355 31.8658 43.6997 27.6825V27.6825ZM40.2545 17.4195C41.1956 16.2351 41.8394 14.6257 41.6608 12.9912C40.299 13.0521 38.5953 13.9387 37.6151 15.0961C36.747 16.1167 35.9718 17.7884 36.1723 19.3606C37.702 19.4756 39.2729 18.5843 40.2545 17.4195ZM64.831 34.3652L63.6198 30.6022C63.4917 30.2178 63.2515 29.3122 62.8971 27.8875H62.8539C62.6392 28.7955 62.4124 29.7005 62.1737 30.6022L60.9837 34.3652H64.831ZM69.0188 40.3738H66.5738L65.2345 36.1411H60.5795L59.3033 40.3738H56.9227L61.5352 25.9634H64.3837L69.0188 40.3738ZM78.5419 35.1354C78.5419 34.1236 78.3156 33.2897 77.8609 32.6339C77.3652 31.949 76.6982 31.6072 75.8633 31.6072C75.2965 31.6072 74.7815 31.7974 74.3222 32.1737C73.8616 32.5527 73.5603 33.0468 73.4196 33.6599C73.348 33.9462 73.3128 34.1797 73.3128 34.3638V36.0964C73.3128 36.8524 73.5431 37.4906 74.0037 38.0118C74.4643 38.5322 75.0629 38.7921 75.7996 38.7921C76.6643 38.7921 77.3366 38.4564 77.8185 37.7871C78.3003 37.117 78.5419 36.2331 78.5419 35.1354ZM80.88 35.0508C80.88 36.8179 80.4055 38.2148 79.4558 39.2401C78.6049 40.1531 77.549 40.6093 76.288 40.6093C74.9275 40.6093 73.9499 40.1173 73.3546 39.1339H73.3115V44.6078H71.0158V33.4034C71.0158 32.2928 70.9873 31.1524 70.9309 29.9829H72.9498L73.0778 31.6296H73.121C73.8862 30.389 75.0483 29.7697 76.6073 29.7697C77.8258 29.7697 78.8432 30.2536 79.6569 31.2228C80.4732 32.1926 80.88 33.4684 80.88 35.0508ZM90.4243 35.1354C90.4243 34.1236 90.1973 33.2897 89.7427 32.6339C89.2463 31.949 88.5826 31.6072 87.7457 31.6072C87.1783 31.6072 86.6646 31.7974 86.204 32.1737C85.7434 32.5527 85.4428 33.0468 85.3014 33.6599C85.2317 33.9462 85.1952 34.1797 85.1952 34.3638V36.0964C85.1952 36.8524 85.4255 37.4906 85.8841 38.0118C86.3454 38.5309 86.9433 38.7921 87.6827 38.7921C88.5468 38.7921 89.2197 38.4564 89.7009 37.7871C90.1834 37.117 90.4243 36.2331 90.4243 35.1354ZM92.7631 35.0508C92.7631 36.8179 92.2879 38.2148 91.3375 39.2401C90.488 40.1531 89.4314 40.6093 88.1711 40.6093C86.8106 40.6093 85.8323 40.1173 85.2377 39.1339H85.1952V44.6078H82.8996V33.4034C82.8996 32.2928 82.871 31.1524 82.8146 29.9829H84.8335L84.9616 31.6296H85.0047C85.7693 30.389 86.9307 29.7697 88.491 29.7697C89.7082 29.7697 90.7256 30.2536 91.5419 31.2228C92.3549 32.1926 92.7631 33.4684 92.7631 35.0508ZM106.049 36.3326C106.049 37.5583 105.625 38.5559 104.776 39.3261C103.842 40.1674 102.543 40.5876 100.873 40.5876C99.3315 40.5876 98.095 40.2885 97.1599 39.6895L97.6915 37.7654C98.6996 38.3786 99.8053 38.6858 101.01 38.6858C101.874 38.6858 102.547 38.4889 103.031 38.097C103.512 37.7045 103.752 37.1786 103.752 36.5221C103.752 35.9374 103.554 35.4447 103.157 35.0454C102.761 34.646 102.102 34.2738 101.18 33.9307C98.6711 32.9899 97.4181 31.6113 97.4181 29.7988C97.4181 28.6144 97.8574 27.6425 98.7368 26.8866C99.6129 26.1299 100.783 25.7522 102.245 25.7522C103.548 25.7522 104.632 25.9803 105.496 26.4358L104.922 28.3187C104.115 27.8767 103.202 27.6554 102.18 27.6554C101.373 27.6554 100.742 27.8557 100.29 28.2544C99.9075 28.611 99.7157 29.0449 99.7157 29.5592C99.7157 30.1291 99.9347 30.6001 100.373 30.9703C100.756 31.3128 101.45 31.683 102.457 32.0823C103.69 32.5818 104.596 33.1652 105.178 33.8346C105.758 34.5019 106.048 35.3371 106.048 36.3326H106.049ZM113.638 31.7155H111.108V36.7604C111.108 38.0436 111.553 38.6845 112.447 38.6845C112.857 38.6845 113.197 38.6493 113.466 38.5776L113.53 40.3305C113.077 40.501 112.482 40.5863 111.745 40.5863C110.838 40.5863 110.13 40.3081 109.618 39.7525C109.109 39.1962 108.853 38.2622 108.853 36.9505V31.7135H107.346V29.9809H108.853V28.0777L111.108 27.3941V29.9809H113.638V31.7155V31.7155ZM122.672 35.1679C122.672 34.2095 122.468 33.3879 122.056 32.7016C121.575 31.8725 120.886 31.459 119.995 31.459C119.072 31.459 118.372 31.8732 117.89 32.7016C117.478 33.3885 117.275 34.223 117.275 35.2112C117.275 36.1695 117.478 36.9911 117.89 37.6754C118.386 38.5051 119.08 38.9187 119.974 38.9187C120.85 38.9187 121.539 38.4963 122.035 37.6537C122.459 36.9553 122.672 36.1248 122.672 35.1679ZM125.053 35.0934C125.053 36.6906 124.599 38.0016 123.692 39.027C122.741 40.0828 121.48 40.6093 119.907 40.6093C118.391 40.6093 117.184 40.1031 116.284 39.0919C115.384 38.0808 114.934 36.8044 114.934 35.2653C114.934 33.6545 115.397 32.3361 116.326 31.3101C117.253 30.2841 118.504 29.7704 120.077 29.7704C121.592 29.7704 122.812 30.276 123.733 31.2884C124.613 32.2712 125.053 33.5388 125.053 35.0927V35.0934ZM132.514 32.0133C132.275 31.9698 132.033 31.9482 131.79 31.949C130.983 31.949 130.359 32.2556 129.919 32.8694C129.537 33.4109 129.345 34.0958 129.345 34.9215V40.3738H127.051L127.073 33.2552C127.073 32.0573 127.044 30.9676 126.987 29.9836H128.986L129.07 31.972H129.134C129.376 31.2884 129.758 30.7389 130.281 30.326C130.792 29.9545 131.345 29.7697 131.94 29.7697C132.153 29.7697 132.344 29.7846 132.514 29.8117V32.0133V32.0133ZM140.591 34.0877C140.606 33.4041 140.456 32.8126 140.145 32.3131C139.748 31.6708 139.137 31.3507 138.316 31.3507C137.566 31.3507 136.955 31.6634 136.489 32.2915C136.107 32.7909 135.879 33.3892 135.81 34.087H140.591V34.0877ZM142.78 34.6866C142.78 35.1002 142.753 35.4494 142.696 35.7337H135.81C135.836 36.7604 136.169 37.5454 136.808 38.0869C137.389 38.5708 138.139 38.8138 139.061 38.8138C140.08 38.8138 141.011 38.65 141.847 38.3217L142.207 39.9244C141.229 40.3535 140.075 40.5673 138.743 40.5673C137.142 40.5673 135.884 40.0922 134.969 39.1447C134.056 38.1972 133.598 36.9248 133.598 35.3289C133.598 33.7621 134.023 32.4573 134.875 31.417C135.767 30.3057 136.971 29.7501 138.487 29.7501C139.976 29.7501 141.103 30.3051 141.869 31.4164C142.475 32.2989 142.78 33.3906 142.78 34.6866V34.6866ZM62.8818 17.1285C62.8818 16.3028 62.6648 15.6693 62.2294 15.2274C61.7947 14.7868 61.1596 14.5661 60.3227 14.5661C59.9676 14.5661 59.6657 14.5898 59.4141 14.6392V19.9338C59.5535 19.9555 59.807 19.9649 60.1767 19.9649C61.0395 19.9649 61.7065 19.7233 62.1757 19.2408C62.6456 18.7575 62.8818 18.0537 62.8818 17.1292V17.1285ZM64.0718 17.0973C64.0718 18.3724 63.6915 19.3315 62.9329 19.9758C62.2294 20.5707 61.2306 20.8685 59.9364 20.8685C59.3851 20.8732 58.834 20.845 58.2859 20.7839V13.8189C58.9288 13.7178 59.5786 13.6687 60.2291 13.6721C61.4622 13.6721 62.3914 13.9414 63.0179 14.4808C63.72 15.09 64.0718 15.9624 64.0718 17.0967V17.0973ZM69.2093 18.2479C69.2093 17.7768 69.1084 17.3728 68.9067 17.0364C68.6704 16.629 68.3332 16.4253 67.8952 16.4253C67.4419 16.4253 67.0968 16.6283 66.8599 17.0358C66.6581 17.3728 66.5579 17.7829 66.5579 18.2682C66.5579 18.7393 66.6588 19.1433 66.8605 19.4797C67.1048 19.8871 67.4446 20.0908 67.8839 20.0908C68.3153 20.0908 68.6531 19.8837 68.896 19.4688C69.1051 19.1257 69.2093 18.719 69.2093 18.2479V18.2479ZM70.38 18.2107C70.38 18.9958 70.157 19.6387 69.711 20.1436C69.2438 20.6627 68.6246 20.9213 67.8521 20.9213C67.1068 20.9213 66.5134 20.6735 66.0708 20.1754C65.6294 19.678 65.4091 19.0513 65.4091 18.2953C65.4091 17.5048 65.6361 16.8564 66.0927 16.3529C66.5493 15.8493 67.1625 15.5969 67.9357 15.5969C68.681 15.5969 69.2796 15.8446 69.7329 16.3414C70.1637 16.8246 70.38 17.4486 70.38 18.2107V18.2107ZM78.8379 15.7004L77.2497 20.8055H76.2164L75.558 18.589C75.3943 18.0468 75.2583 17.4963 75.1505 16.9397H75.1299C75.0325 17.4986 74.8961 18.0498 74.7218 18.589L74.0229 20.8055H72.9783L71.485 15.7004H72.6445L73.2185 18.1274C73.3573 18.7014 73.4714 19.2482 73.563 19.7653H73.5829C73.6672 19.3389 73.8066 18.7954 74.0023 18.1383L74.7224 15.7018H75.6416L76.3318 18.0861C76.4991 18.6682 76.6345 19.2279 76.7387 19.7666H76.7699C76.8551 19.2005 76.9703 18.6395 77.115 18.0861L77.7309 15.7018H78.8385V15.7004H78.8379ZM84.6868 20.8055H83.5586V17.8818C83.5586 16.9809 83.2188 16.5302 82.5365 16.5302C82.2014 16.5302 81.9306 16.6534 81.7209 16.9017C81.5146 17.1443 81.4031 17.4558 81.4076 17.7768V20.8042H80.2794V17.1596C80.2794 16.7109 80.2654 16.225 80.2382 15.6984H81.2298L81.2829 16.497H81.314C81.4455 16.2486 81.6412 16.0436 81.8981 15.8805C82.2061 15.689 82.5607 15.5895 82.9215 15.5935C83.3953 15.5935 83.7889 15.7471 84.1028 16.0558C84.4924 16.4341 84.6868 16.9979 84.6868 17.7477V20.8055V20.8055ZM86.6712 20.8055H87.7988V13.3587H86.6712V20.8055ZM93.2701 18.2479C93.2701 17.7768 93.1686 17.3728 92.9675 17.0364C92.7319 16.629 92.3934 16.4253 91.9567 16.4253C91.5021 16.4253 91.1577 16.6283 90.9214 17.0358C90.7196 17.3728 90.6194 17.7829 90.6194 18.2682C90.6194 18.7393 90.7203 19.1433 90.9221 19.4797C91.1663 19.8871 91.5061 20.0908 91.9454 20.0908C92.3768 20.0908 92.7133 19.8837 92.9569 19.4688C93.1666 19.1257 93.2701 18.719 93.2701 18.2479V18.2479ZM94.4415 18.2107C94.4415 18.9958 94.2185 19.6387 93.7725 20.1436C93.3053 20.6627 92.6854 20.9213 91.9136 20.9213C91.167 20.9213 90.5743 20.6735 90.1329 20.1754C89.6909 19.678 89.4706 19.0513 89.4706 18.2953C89.4706 17.5048 89.6976 16.8564 90.1542 16.3529C90.6108 15.8493 91.224 15.5969 91.9965 15.5969C92.7425 15.5969 93.3398 15.8446 93.7944 16.3414C94.2252 16.8246 94.4415 17.4486 94.4415 18.2107V18.2107ZM98.7308 19.0506V18.2648C97.4858 18.2432 96.8639 18.5863 96.8639 19.2936C96.8639 19.5595 96.9349 19.7592 97.0803 19.8918C97.2256 20.0252 97.4108 20.0915 97.6311 20.0915C97.8787 20.0915 98.1103 20.0123 98.3214 19.8553C98.4488 19.7657 98.5527 19.6456 98.6241 19.5056C98.6955 19.3655 98.7322 19.2098 98.7308 19.0519V19.0506ZM99.9022 20.8062H98.8888L98.8052 20.2181H98.7733C98.4269 20.6871 97.9331 20.9219 97.2913 20.9219C96.8122 20.9219 96.4246 20.7669 96.1326 20.4597C95.8678 20.1802 95.7357 19.8323 95.7357 19.4201C95.7357 18.7961 95.9939 18.321 96.5135 17.9921C97.0325 17.6625 97.7625 17.5014 98.7023 17.5088V17.4127C98.7023 16.74 98.3519 16.4043 97.6484 16.4043C97.148 16.4043 96.706 16.5315 96.3257 16.7826L96.0961 16.0375C96.5673 15.7437 97.15 15.5969 97.8369 15.5969C99.1636 15.5969 99.8286 16.3008 99.8286 17.7085V19.588C99.8286 20.0983 99.8538 20.5043 99.9016 20.8055L99.9022 20.8062ZM105.144 18.6526V17.8012C105.144 17.6543 105.133 17.5352 105.113 17.4439C105.052 17.1762 104.909 16.9352 104.705 16.7562C104.495 16.5718 104.227 16.4729 103.95 16.4788C103.529 16.4788 103.2 16.6459 102.957 16.983C102.718 17.3193 102.595 17.7498 102.595 18.275C102.595 18.7792 102.711 19.1886 102.943 19.504C103.187 19.8397 103.516 20.0076 103.929 20.0076C104.299 20.0076 104.595 19.8675 104.82 19.5873C105.038 19.3281 105.144 19.0167 105.144 18.6526V18.6526ZM106.313 20.8048H105.312L105.259 19.9859H105.228C104.908 20.6092 104.363 20.9213 103.598 20.9213C102.986 20.9213 102.477 20.6796 102.074 20.1971C101.67 19.7138 101.468 19.0871 101.468 18.3169C101.468 17.4912 101.688 16.8212 102.126 16.3102C102.551 15.8338 103.073 15.5955 103.692 15.5955C104.374 15.5955 104.851 15.8263 105.123 16.2886H105.144V13.3587H106.273V19.4309C106.273 19.9277 106.287 20.3859 106.313 20.8062V20.8048ZM114.794 18.2479C114.794 17.7768 114.693 17.3728 114.491 17.0364C114.254 16.629 113.918 16.4253 113.478 16.4253C113.026 16.4253 112.682 16.6283 112.443 17.0358C112.241 17.3728 112.141 17.7829 112.141 18.2682C112.141 18.7393 112.242 19.1433 112.444 19.4797C112.688 19.8871 113.028 20.0908 113.468 20.0908C113.898 20.0908 114.238 19.8837 114.48 19.4688C114.688 19.1257 114.794 18.719 114.794 18.2479V18.2479ZM115.963 18.2107C115.963 18.9958 115.74 19.6387 115.294 20.1436C114.827 20.6627 114.209 20.9213 113.435 20.9213C112.691 20.9213 112.098 20.6735 111.655 20.1754C111.213 19.678 110.992 19.0513 110.992 18.2953C110.992 17.5048 111.219 16.8564 111.676 16.3529C112.132 15.8493 112.746 15.5969 113.52 15.5969C114.264 15.5969 114.864 15.8446 115.316 16.3414C115.747 16.8246 115.963 17.4486 115.963 18.2107V18.2107ZM122.03 20.8055H120.902V17.8818C120.902 16.9809 120.562 16.5302 119.879 16.5302C119.544 16.5302 119.274 16.6534 119.064 16.9017C118.858 17.144 118.746 17.4557 118.751 17.7768V20.8042H117.622V17.1596C117.622 16.7109 117.609 16.225 117.583 15.6984H118.573L118.626 16.497H118.657C118.79 16.2486 118.985 16.0436 119.241 15.8805C119.549 15.6891 119.904 15.5896 120.265 15.5935C120.738 15.5935 121.132 15.7471 121.445 16.0558C121.837 16.4341 122.03 16.9979 122.03 17.7477V20.8055H122.03ZM129.623 16.5505H128.381V19.0303C128.381 19.6611 128.601 19.9758 129.038 19.9758C129.241 19.9758 129.409 19.9588 129.541 19.923L129.57 20.7839C129.347 20.8685 129.055 20.9104 128.694 20.9104C128.248 20.9104 127.902 20.7737 127.651 20.501C127.399 20.2282 127.274 19.7693 127.274 19.125V16.5505H126.532V15.7004H127.274V14.7651L128.38 14.4294V15.6998H129.622V16.5505H129.624H129.623ZM135.596 20.8055H134.467V17.9034C134.467 16.9884 134.127 16.5302 133.445 16.5302C132.922 16.5302 132.565 16.7955 132.369 17.3261C132.331 17.4588 132.313 17.5963 132.315 17.7342V20.8042H131.189V13.3587H132.317V16.4348H132.338C132.694 15.875 133.203 15.5955 133.862 15.5955C134.33 15.5955 134.717 15.7492 135.024 16.0578C135.405 16.4422 135.597 17.0141 135.597 17.7701V20.8055H135.596ZM140.681 17.718C140.69 17.3816 140.616 17.0913 140.463 16.8463C140.267 16.5315 139.969 16.3732 139.565 16.3732C139.196 16.3732 138.896 16.5268 138.667 16.8354C138.476 17.0914 138.36 17.3974 138.332 17.718H140.682H140.681ZM141.758 18.0117C141.758 18.2147 141.743 18.386 141.716 18.5261H138.332C138.347 19.0303 138.509 19.4147 138.822 19.6814C139.108 19.9196 139.478 20.0387 139.93 20.0387C140.43 20.0387 140.887 19.9588 141.298 19.7971L141.475 20.5856C140.994 20.7954 140.427 20.9009 139.772 20.9009C138.985 20.9009 138.367 20.6681 137.919 20.2025C137.469 19.7369 137.246 19.1115 137.246 18.3278C137.246 17.5576 137.454 16.9166 137.872 16.4057C138.31 15.8602 138.901 15.5867 139.647 15.5867C140.377 15.5867 140.931 15.8602 141.306 16.4057C141.608 16.8388 141.757 17.3748 141.757 18.0117" fill="white"/>
</g>
<defs>
<clipPath id="clip0">
<rect width="118.798" height="32.4863" fill="white" transform="translate(24.5369 12.3501)"/>
</clipPath>
</defs>
</svg>
