<svg width="31" height="36" viewBox="0 0 31 36" fill="none" xmlns="http://www.w3.org/2000/svg">
<mask id="mask0" mask-type="alpha" maskUnits="userSpaceOnUse" x="0" y="-1" width="31" height="38">
<path d="M30 36V0H0.5V36H30Z" fill="#C4C4C4" stroke="black"/>
</mask>
<g mask="url(#mask0)">
<path fill-rule="evenodd" clip-rule="evenodd" d="M23.6643 18.6913C23.6331 15.2017 26.5054 13.5036 26.6375 13.4244C25.0102 11.0387 22.4889 10.7132 21.6029 10.6868C19.4851 10.4627 17.431 11.9612 16.3519 11.9612C15.2515 11.9612 13.591 10.7091 11.7997 10.7456C9.49614 10.7808 7.34052 12.1229 6.15852 14.2061C3.71885 18.4544 5.53865 24.6972 7.87544 28.1312C9.04484 29.8124 10.4107 31.6905 12.1993 31.6242C13.9487 31.5518 14.6024 30.5027 16.7136 30.5027C18.8055 30.5027 19.4194 31.6242 21.2432 31.5822C23.1214 31.5518 24.3027 29.8929 25.431 28.1962C26.7822 26.2687 27.3251 24.3703 27.3463 24.2728C27.3025 24.2572 23.7001 22.8745 23.6643 18.6913V18.6913ZM20.2191 8.42829C21.1602 7.24389 21.804 5.63447 21.6254 4C20.2636 4.06091 18.5599 4.94752 17.5797 6.10484C16.7116 7.12545 15.9364 8.79714 16.1369 10.3693C17.6666 10.4844 19.2375 9.59306 20.2191 8.42829ZM44.7956 25.374L43.5844 21.611C43.4563 21.2265 43.2161 20.321 42.8617 18.8963H42.8185C42.6038 19.8043 42.377 20.7092 42.1383 21.611L40.9483 25.374H44.7956ZM48.9834 31.3826H46.5384L45.1991 27.1499H40.5441L39.2679 31.3826H36.8873L41.4998 16.9722H44.3483L48.9834 31.3826ZM58.5065 26.1442C58.5065 25.1323 58.2802 24.2985 57.8255 23.6427C57.3298 22.9578 56.6628 22.616 55.8279 22.616C55.2611 22.616 54.7461 22.8062 54.2868 23.1825C53.8262 23.5615 53.5249 24.0556 53.3842 24.6687C53.3126 24.955 53.2774 25.1885 53.2774 25.3726V27.1052C53.2774 27.8612 53.5077 28.4994 53.9683 29.0205C54.4289 29.541 55.0275 29.8009 55.7642 29.8009C56.6289 29.8009 57.3012 29.4652 57.7831 28.7958C58.2649 28.1258 58.5065 27.2419 58.5065 26.1442ZM60.8446 26.0596C60.8446 27.8267 60.3701 29.2236 59.4204 30.2489C58.5695 31.1619 57.5136 31.6181 56.2526 31.6181C54.8921 31.6181 53.9145 31.1261 53.3192 30.1427H53.2761V35.6166H50.9804V24.4122C50.9804 23.3016 50.9519 22.1612 50.8955 20.9917H52.9144L53.0424 22.6383H53.0856C53.8508 21.3978 55.0129 20.7785 56.5719 20.7785C57.7904 20.7785 58.8078 21.2624 59.6215 22.2316C60.4378 23.2014 60.8446 24.4772 60.8446 26.0596ZM70.3889 26.1442C70.3889 25.1323 70.1619 24.2985 69.7073 23.6427C69.2109 22.9578 68.5472 22.616 67.7103 22.616C67.1429 22.616 66.6292 22.8062 66.1686 23.1825C65.708 23.5615 65.4074 24.0556 65.266 24.6687C65.1963 24.955 65.1598 25.1885 65.1598 25.3726V27.1052C65.1598 27.8612 65.3901 28.4994 65.8487 29.0205C66.31 29.5397 66.9079 29.8009 67.6473 29.8009C68.5114 29.8009 69.1843 29.4652 69.6655 28.7958C70.148 28.1258 70.3889 27.2419 70.3889 26.1442ZM72.7277 26.0596C72.7277 27.8267 72.2525 29.2236 71.3021 30.2489C70.4526 31.1619 69.396 31.6181 68.1357 31.6181C66.7752 31.6181 65.7969 31.1261 65.2023 30.1427H65.1598V35.6166H62.8642V24.4122C62.8642 23.3016 62.8356 22.1612 62.7792 20.9917H64.7981L64.9262 22.6383H64.9693C65.7339 21.3978 66.8953 20.7785 68.4556 20.7785C69.6728 20.7785 70.6902 21.2624 71.5065 22.2316C72.3195 23.2014 72.7277 24.4772 72.7277 26.0596ZM86.0131 27.3414C86.0131 28.5671 85.5897 29.5647 84.7402 30.3349C83.8071 31.1761 82.5076 31.5964 80.8378 31.5964C79.2961 31.5964 78.0596 31.2973 77.1245 30.6983L77.6561 28.7742C78.6642 29.3874 79.7699 29.6946 80.9745 29.6946C81.8386 29.6946 82.5116 29.4977 82.9954 29.1058C83.4766 28.7133 83.7168 28.1874 83.7168 27.5309C83.7168 26.9462 83.5184 26.4535 83.1215 26.0541C82.7259 25.6548 82.0662 25.2826 81.1444 24.9395C78.6357 23.9987 77.3827 22.6201 77.3827 20.8076C77.3827 19.6232 77.822 18.6513 78.7014 17.8953C79.5775 17.1387 80.7475 16.761 82.2096 16.761C83.5131 16.761 84.5962 16.9891 85.4609 17.4446L84.8869 19.3274C84.0792 18.8855 83.1666 18.6642 82.1446 18.6642C81.3375 18.6642 80.7064 18.8645 80.2544 19.2631C79.8721 19.6198 79.6803 20.0536 79.6803 20.568C79.6803 21.1379 79.8993 21.6089 80.338 21.9791C80.7203 22.3216 81.4145 22.6918 82.422 23.0911C83.6551 23.5906 84.5603 24.174 85.143 24.8433C85.7231 25.5107 86.0125 26.3458 86.0125 27.3414H86.0131ZM93.6022 22.7243H91.0723V27.7691C91.0723 29.0524 91.5176 29.6933 92.4116 29.6933C92.8218 29.6933 93.1615 29.6581 93.431 29.5863L93.4947 31.3393C93.0421 31.5098 92.4468 31.5951 91.7094 31.5951C90.8028 31.5951 90.0947 31.3169 89.583 30.7613C89.074 30.2049 88.8178 29.271 88.8178 27.9593V22.7223H87.3106V20.9897H88.8171V19.0865L91.0723 18.4029V20.9897H93.6022V22.7243V22.7243ZM102.636 26.1766C102.636 25.2183 102.432 24.3967 102.02 23.7104C101.539 22.8813 100.851 22.4678 99.9596 22.4678C99.0371 22.4678 98.3362 22.882 97.8551 23.7104C97.4422 24.3973 97.2392 25.2318 97.2392 26.22C97.2392 27.1783 97.4422 27.9999 97.8551 28.6842C98.3508 29.5139 99.0444 29.9275 99.939 29.9275C100.815 29.9275 101.503 29.5051 102 28.6625C102.423 27.9641 102.636 27.1336 102.636 26.1766ZM105.017 26.1022C105.017 27.6994 104.563 29.0104 103.657 30.0357C102.706 31.0915 101.444 31.6181 99.8713 31.6181C98.3555 31.6181 97.1482 31.1119 96.2483 30.1007C95.3484 29.0896 94.8984 27.8131 94.8984 26.2741C94.8984 24.6633 95.3616 23.3449 96.2908 22.3189C97.2173 21.2929 98.4683 20.7792 100.041 20.7792C101.557 20.7792 102.777 21.2847 103.698 22.2972C104.578 23.2799 105.017 24.5476 105.017 26.1015V26.1022ZM112.478 23.0221C112.24 22.9785 111.998 22.957 111.755 22.9578C110.947 22.9578 110.323 23.2644 109.883 23.8782C109.502 24.4197 109.31 25.1046 109.31 25.9303V31.3826H107.016L107.038 24.264C107.038 23.0661 107.008 21.9764 106.951 20.9924H108.95L109.035 22.9808H109.098C109.341 22.2972 109.722 21.7477 110.246 21.3348C110.757 20.9633 111.31 20.7785 111.905 20.7785C112.117 20.7785 112.309 20.7934 112.478 20.8205V23.0221V23.0221ZM120.555 25.0965C120.571 24.4129 120.421 23.8214 120.11 23.3219C119.712 22.6796 119.102 22.3595 118.28 22.3595C117.53 22.3595 116.92 22.6722 116.454 23.3002C116.072 23.7997 115.844 24.398 115.774 25.0958H120.555V25.0965ZM122.744 25.6954C122.744 26.109 122.718 26.4582 122.661 26.7424H115.774C115.801 27.7691 116.134 28.5542 116.773 29.0957C117.354 29.5796 118.104 29.8226 119.026 29.8226C120.045 29.8226 120.975 29.6588 121.812 29.3305L122.171 30.9332C121.194 31.3623 120.04 31.5761 118.708 31.5761C117.106 31.5761 115.849 31.101 114.933 30.1535C114.02 29.206 113.563 27.9336 113.563 26.3377C113.563 24.7709 113.988 23.4661 114.84 22.4258C115.731 21.3145 116.936 20.7589 118.452 20.7589C119.941 20.7589 121.068 21.3138 121.834 22.4251C122.44 23.3077 122.744 24.3994 122.744 25.6954V25.6954ZM42.8464 8.13727C42.8464 7.31157 42.6294 6.67809 42.194 6.23614C41.7593 5.79554 41.1242 5.57491 40.2873 5.57491C39.9322 5.57491 39.6303 5.5986 39.3787 5.648V10.9426C39.5181 10.9643 39.7716 10.9737 40.1413 10.9737C41.0041 10.9737 41.6711 10.7321 42.1403 10.2496C42.6102 9.76632 42.8464 9.06245 42.8464 8.13794V8.13727ZM44.0364 8.10613C44.0364 9.38122 43.6561 10.3402 42.8975 10.9846C42.194 11.5795 41.1952 11.8773 39.901 11.8773C39.3497 11.882 38.7986 11.8538 38.2505 11.7927V4.82772C38.8934 4.72663 39.5432 4.67752 40.1937 4.68086C41.4268 4.68086 42.356 4.95022 42.9825 5.48963C43.6846 6.09875 44.0364 6.97114 44.0364 8.10546V8.10613ZM49.1739 9.25669C49.1739 8.78564 49.073 8.38159 48.8713 8.04522C48.635 7.63779 48.2978 7.43407 47.8598 7.43407C47.4065 7.43407 47.0614 7.63711 46.8245 8.04454C46.6227 8.38159 46.5225 8.79173 46.5225 9.27699C46.5225 9.74805 46.6234 10.1521 46.8251 10.4885C47.0694 10.8959 47.4092 11.0996 47.8485 11.0996C48.2799 11.0996 48.6177 10.8925 48.8606 10.4776C49.0697 10.1345 49.1739 9.72774 49.1739 9.25669V9.25669ZM50.3446 9.21947C50.3446 10.0046 50.1216 10.6475 49.6756 11.1524C49.2084 11.6715 48.5892 11.93 47.8167 11.93C47.0714 11.93 46.478 11.6823 46.0354 11.1842C45.594 10.6868 45.3737 10.06 45.3737 9.30407C45.3737 8.51357 45.6007 7.86519 46.0573 7.36166C46.5139 6.85812 47.1271 6.60567 47.9003 6.60567C48.6456 6.60567 49.2442 6.85338 49.6975 7.35015C50.1283 7.83338 50.3446 8.45739 50.3446 9.21947V9.21947ZM58.8025 6.70922L57.2143 11.8143H56.181L55.5226 9.5978C55.3589 9.05557 55.2229 8.50504 55.1151 7.94844H55.0945C54.9971 8.50742 54.8607 9.05861 54.6864 9.5978L53.9875 11.8143H52.9429L51.4496 6.70922H52.6091L53.1831 9.13622C53.3219 9.71014 53.436 10.257 53.5276 10.7741H53.5475C53.6318 10.3477 53.7712 9.80422 53.9669 9.14705L54.687 6.71058H55.6062L56.2964 9.09494C56.4637 9.67698 56.5991 10.2367 56.7033 10.7754H56.7345C56.8197 10.2093 56.9349 9.64834 57.0796 9.09494L57.6955 6.71058H58.8031V6.70922H58.8025ZM64.6514 11.8143H63.5232V8.89054C63.5232 7.98972 63.1834 7.53898 62.5011 7.53898C62.166 7.53898 61.8952 7.66215 61.6855 7.91054C61.4792 8.1531 61.3677 8.4646 61.3722 8.78564V11.813H60.244V8.1684C60.244 7.71968 60.23 7.23374 60.2028 6.70719H61.1944L61.2474 7.50581H61.2786C61.4101 7.25743 61.6058 7.05236 61.8627 6.88925C62.1707 6.69774 62.5253 6.59831 62.8861 6.60229C63.3599 6.60229 63.7535 6.75592 64.0674 7.06454C64.457 7.44287 64.6514 8.00664 64.6514 8.75654V11.8143V11.8143ZM66.6358 11.8143H67.7634V4.3675H66.6358V11.8143ZM73.2347 9.25669C73.2347 8.78564 73.1332 8.38159 72.9321 8.04522C72.6965 7.63779 72.358 7.43407 71.9213 7.43407C71.4667 7.43407 71.1223 7.63711 70.886 8.04454C70.6842 8.38159 70.584 8.79173 70.584 9.27699C70.584 9.74805 70.6849 10.1521 70.8867 10.4885C71.1309 10.8959 71.4707 11.0996 71.91 11.0996C72.3414 11.0996 72.6779 10.8925 72.9215 10.4776C73.1312 10.1345 73.2347 9.72774 73.2347 9.25669V9.25669ZM74.4061 9.21947C74.4061 10.0046 74.1831 10.6475 73.7371 11.1524C73.2699 11.6715 72.65 11.93 71.8782 11.93C71.1316 11.93 70.5389 11.6823 70.0975 11.1842C69.6555 10.6868 69.4352 10.06 69.4352 9.30407C69.4352 8.51357 69.6622 7.86519 70.1188 7.36166C70.5754 6.85812 71.1886 6.60567 71.9611 6.60567C72.7071 6.60567 73.3044 6.85338 73.759 7.35015C74.1898 7.83338 74.4061 8.45739 74.4061 9.21947V9.21947ZM78.6954 10.0594V9.27361C77.4504 9.25195 76.8285 9.59509 76.8285 10.3023C76.8285 10.5683 76.8995 10.768 77.0449 10.9006C77.1902 11.034 77.3754 11.1003 77.5957 11.1003C77.8433 11.1003 78.0749 11.0211 78.286 10.8641C78.4134 10.7745 78.5173 10.6544 78.5887 10.5144C78.6601 10.3743 78.6968 10.2186 78.6954 10.0607V10.0594ZM79.8668 11.815H78.8534L78.7698 11.2268H78.7379C78.3915 11.6959 77.8977 11.9307 77.2559 11.9307C76.7768 11.9307 76.3892 11.7757 76.0972 11.4685C75.8324 11.1889 75.7003 10.8411 75.7003 10.4289C75.7003 9.8049 75.9585 9.32978 76.4781 9.00086C76.9971 8.67126 77.7271 8.51018 78.6669 8.51763V8.42152C78.6669 7.74878 78.3165 7.41309 77.613 7.41309C77.1126 7.41309 76.6706 7.54033 76.2903 7.79142L76.0607 7.04627C76.5319 6.75254 77.1146 6.60567 77.8015 6.60567C79.1282 6.60567 79.7932 7.30954 79.7932 8.71728V10.5967C79.7932 11.1071 79.8184 11.5131 79.8662 11.8143L79.8668 11.815ZM85.1085 9.66141V8.81C85.1085 8.66314 85.0979 8.54402 85.0773 8.45265C85.0166 8.18495 84.8736 7.94403 84.6692 7.76503C84.4599 7.58055 84.1911 7.48169 83.9146 7.48754C83.4938 7.48754 83.1646 7.65471 82.9217 7.99175C82.6821 8.32812 82.56 8.75857 82.56 9.28376C82.56 9.78798 82.6755 10.1974 82.9071 10.5128C83.1514 10.8485 83.4805 11.0164 83.8933 11.0164C84.2637 11.0164 84.5597 10.8763 84.7847 10.5961C85.0023 10.3369 85.1085 10.0255 85.1085 9.66141V9.66141ZM86.2779 11.8136H85.2764L85.2233 10.9947H85.1928C84.8729 11.618 84.328 11.93 83.5628 11.93C82.9509 11.93 82.4412 11.6884 82.0384 11.2059C81.6342 10.7226 81.4331 10.0959 81.4331 9.32572C81.4331 8.50003 81.6521 7.83 82.0908 7.31902C82.5155 6.84255 83.0372 6.60432 83.6571 6.60432C84.3387 6.60432 84.8158 6.83511 85.0873 7.29736H85.1085V4.3675H86.2381V10.4397C86.2381 10.9365 86.2514 11.3947 86.2779 11.815V11.8136ZM94.7583 9.25669C94.7583 8.78564 94.6575 8.38159 94.4557 8.04522C94.2181 7.63779 93.8823 7.43407 93.443 7.43407C92.9903 7.43407 92.6465 7.63711 92.4076 8.04454C92.2059 8.38159 92.1056 8.79173 92.1056 9.27699C92.1056 9.74805 92.2065 10.1521 92.4083 10.4885C92.6525 10.8959 92.9923 11.0996 93.4323 11.0996C93.8624 11.0996 94.2022 10.8925 94.4451 10.4776C94.6528 10.1345 94.7583 9.72774 94.7583 9.25669V9.25669ZM95.9277 9.21947C95.9277 10.0046 95.7047 10.6475 95.2588 11.1524C94.7915 11.6715 94.1737 11.93 93.3998 11.93C92.6558 11.93 92.0625 11.6823 91.6192 11.1842C91.1778 10.6868 90.9568 10.06 90.9568 9.30407C90.9568 8.51357 91.1838 7.86519 91.6404 7.36166C92.097 6.85812 92.7109 6.60567 93.4848 6.60567C94.2287 6.60567 94.8287 6.85338 95.2807 7.35015C95.7114 7.83338 95.9277 8.45739 95.9277 9.21947V9.21947ZM101.995 11.8143H100.867V8.89054C100.867 7.98972 100.527 7.53898 99.8434 7.53898C99.5083 7.53898 99.2381 7.66215 99.0291 7.91054C98.8224 8.15283 98.7108 8.46452 98.7158 8.78564V11.813H97.5869V8.1684C97.5869 7.71968 97.5737 7.23374 97.5471 6.70719H98.5373L98.5904 7.50581H98.6216C98.7543 7.25743 98.9495 7.05236 99.2056 6.88925C99.514 6.69785 99.8687 6.59844 100.23 6.60229C100.702 6.60229 101.096 6.75592 101.41 7.06454C101.801 7.44287 101.994 8.00664 101.994 8.75654V11.8143H101.995ZM109.587 7.55928H108.346V10.0391C108.346 10.6698 108.566 10.9846 109.003 10.9846C109.206 10.9846 109.374 10.9676 109.506 10.9318L109.535 11.7927C109.312 11.8773 109.019 11.9192 108.659 11.9192C108.213 11.9192 107.867 11.7825 107.616 11.5098C107.364 11.237 107.239 10.7781 107.239 10.1338V7.55928H106.497V6.70922H107.239V5.77389L108.344 5.4382V6.70855H109.587V7.55928H109.588H109.587ZM115.561 11.8143H114.432V8.9122C114.432 7.99717 114.091 7.53898 113.41 7.53898C112.887 7.53898 112.53 7.80428 112.333 8.33489C112.296 8.46754 112.278 8.60505 112.28 8.743V11.813H111.154V4.3675H112.281V7.44355H112.303C112.658 6.88384 113.167 6.60432 113.827 6.60432C114.294 6.60432 114.681 6.75795 114.988 7.06657C115.37 7.45099 115.562 8.02289 115.562 8.77887V11.8143H115.561ZM120.646 8.72676C120.654 8.39039 120.581 8.10004 120.427 7.85504C120.231 7.54033 119.934 7.38196 119.529 7.38196C119.161 7.38196 118.861 7.53559 118.631 7.84421C118.44 8.10015 118.324 8.40621 118.297 8.72676H120.646H120.646ZM121.723 9.02049C121.723 9.22353 121.708 9.39476 121.68 9.53485H118.297C118.311 10.0391 118.473 10.4235 118.787 10.6901C119.073 10.9284 119.442 11.0475 119.895 11.0475C120.395 11.0475 120.851 10.9676 121.263 10.8059L121.439 11.5944C120.958 11.8042 120.392 11.9097 119.736 11.9097C118.95 11.9097 118.331 11.6769 117.883 11.2113C117.433 10.7456 117.21 10.1203 117.21 9.33655C117.21 8.56636 117.418 7.92543 117.837 7.41445C118.274 6.86895 118.866 6.59552 119.612 6.59552C120.342 6.59552 120.896 6.86895 121.271 7.41445C121.573 7.8476 121.722 8.38362 121.722 9.02049" fill="black"/>
</g>
</svg>
