<svg width="40" height="40" viewBox="0 0 40 40" fill="none" xmlns="http://www.w3.org/2000/svg">
<path d="M18.674 30.0758C18.8482 30.2499 19.0549 30.388 19.2824 30.4823C19.5098 30.5765 19.7537 30.625 19.9999 30.625C20.2461 30.625 20.49 30.5765 20.7175 30.4823C20.945 30.388 21.1517 30.2499 21.3258 30.0758L28.3968 23.0048C28.7484 22.6531 28.946 22.1762 28.946 21.6789C28.946 21.1817 28.7484 20.7048 28.3968 20.3531C28.0452 20.0015 27.5682 19.804 27.071 19.804C26.5737 19.804 26.0968 20.0015 25.7451 20.3531L21.8749 24.2234V3.75C21.8749 3.25272 21.6774 2.77581 21.3257 2.42417C20.9741 2.07254 20.4972 1.875 19.9999 1.875C19.5026 1.875 19.0257 2.07254 18.6741 2.42417C18.3225 2.77581 18.1249 3.25272 18.1249 3.75V24.2234L14.2547 20.3531C13.903 20.0015 13.4261 19.804 12.9289 19.804C12.4316 19.804 11.9547 20.0015 11.603 20.3531C11.2514 20.7048 11.0539 21.1817 11.0539 21.6789C11.0539 22.1762 11.2514 22.6531 11.603 23.0048L18.674 30.0758Z" fill="white"/>
<rect x="1.875" y="34.375" width="36.25" height="3.75" rx="1.875" fill="white"/>
</svg>
