<svg width="168" height="57" viewBox="0 0 168 57" fill="none" xmlns="http://www.w3.org/2000/svg">
<rect width="167.684" height="57" rx="5" fill="#212121"/>
<g clip-path="url(#clip0)">
<path fill-rule="evenodd" clip-rule="evenodd" d="M21.3874 14.7463C21.0642 15.0779 20.9561 15.7398 20.9561 16.2921V40.4917C20.9561 41.0446 21.1717 41.5969 21.3874 42.0388L21.4956 42.1491L34.8673 28.5584V28.2267L21.3881 14.7456L21.3874 14.7463Z" fill="url(#paint0_linear)"/>
<path fill-rule="evenodd" clip-rule="evenodd" d="M39.2885 32.9779L34.8671 28.4474V28.1157L39.2885 23.5859L39.396 23.6969L44.6802 26.7906C46.19 27.6745 46.19 29.1113 44.6802 29.9952L39.2885 32.9785V32.9779Z" fill="url(#paint1_linear)"/>
<path fill-rule="evenodd" clip-rule="evenodd" d="M39.3962 32.9777L34.7598 28.3369L21.3881 42.0373C22.0351 42.5903 23.0054 42.5903 23.6525 42.1483L39.3962 32.9777" fill="url(#paint2_linear)"/>
<path fill-rule="evenodd" clip-rule="evenodd" d="M39.396 23.6961L23.5454 14.6352C22.8977 14.1932 21.9261 14.1932 21.2797 14.7462L34.7589 28.3376L39.396 23.6968V23.6961Z" fill="url(#paint3_linear)"/>
<path fill-rule="evenodd" clip-rule="evenodd" d="M61.3949 17.6186C61.3949 18.3922 61.071 19.2761 60.6396 19.8284C60.3281 20.1455 59.9582 20.3967 59.5511 20.5675C59.144 20.7382 58.7078 20.8252 58.2676 20.8233C57.4049 20.8233 56.4339 20.4916 55.895 19.8284C55.1404 19.1651 54.8165 18.2819 54.8165 17.3973C54.8165 16.4031 55.1404 15.5192 55.7875 14.9669C56.4339 14.3037 57.2967 13.8617 58.1595 13.972C58.5908 13.972 59.0222 14.0823 59.4536 14.3037C59.7768 14.525 60.2082 14.6353 60.5321 15.0772L59.9925 15.4089C59.5061 14.9136 58.8468 14.6354 58.1595 14.6353C57.4049 14.6353 56.7578 14.9669 56.2182 15.5192C55.7342 16.0196 55.4631 16.6944 55.4636 17.3973C55.4636 18.0606 55.7875 18.8341 56.2182 19.2761C56.7048 19.7715 57.3643 20.0498 58.0519 20.0497C58.8065 20.0497 59.3461 19.718 59.885 19.2761C60.2082 18.8341 60.4239 18.2812 60.5321 17.8393H58.1595V17.0664H61.2867C61.3949 17.287 61.3949 17.5083 61.3949 17.6186V17.6186ZM66.3545 14.8566H63.4436V17.0664H66.032V17.8393H63.4436V19.9394H66.3545V20.7123H62.5802V14.0823H66.3545V14.8566ZM69.8056 20.7123H68.9428V14.8566H67.1098V14.0823H71.5312V14.8566H69.6981V20.7129L69.8056 20.7123ZM74.8741 20.7123V14.0823H75.7369V20.6019C75.6287 20.7123 74.8741 20.7123 74.8741 20.7123V20.7123ZM78.5402 20.7123V14.8566H76.7078V14.0823H81.1292V14.8566H79.2961C79.4037 14.8566 79.4037 20.7129 79.4037 20.7129H78.5409L78.5402 20.7123ZM89.6475 19.8284C88.3533 21.1549 86.3045 21.1549 84.7947 19.8284C84.1686 19.1808 83.8197 18.3067 83.8244 17.3973C83.8244 16.5134 84.1476 15.5192 84.7947 14.9669C86.197 13.5301 88.2458 13.5301 89.6475 14.8559C90.2735 15.5035 90.6224 16.3776 90.6177 17.287C90.6177 18.2819 90.2945 19.1658 89.6475 19.8284ZM85.4418 19.2761C86.4121 20.271 88.0301 20.271 88.8929 19.2761C89.377 18.7755 89.6481 18.1004 89.6475 17.3973C89.6475 16.734 89.3236 16.0715 88.8929 15.5192C87.9219 14.5243 86.3045 14.5243 85.4418 15.5192C84.9578 16.0196 84.6867 16.6944 84.6872 17.3973C84.6872 18.0606 85.0104 18.7238 85.4418 19.2761ZM91.8044 20.7123V14.0823H92.8822L96.0094 19.1651V14.0823H96.8722V20.6019H96.0094L92.6665 15.1876V20.4909L91.8037 20.7123H91.8044Z" fill="white" stroke="white" stroke-width="0.560673"/>
<path fill-rule="evenodd" clip-rule="evenodd" d="M83.7162 30.2151C81.1279 30.2151 79.1873 32.3145 79.2955 34.9662C79.403 37.6186 81.3442 39.6077 83.9319 39.4967C86.412 39.4967 88.3533 37.3973 88.3533 34.8559C88.3533 32.3145 86.4121 30.2151 83.7162 30.2151V30.2151ZM83.7162 37.7289C82.207 37.8399 80.9128 36.6244 80.8047 35.0772C80.6972 33.5301 81.8831 32.2042 83.393 32.0939C84.9029 31.9829 86.197 33.1984 86.3045 34.7456V34.9669C86.4121 36.4031 85.2261 37.7289 83.7162 37.7289ZM73.6881 30.2151C71.0998 30.2151 69.1585 32.3145 69.2667 34.9662C69.2667 37.6186 71.3155 39.6077 73.9038 39.4967C76.3839 39.4967 78.3245 37.3973 78.3245 34.8559C78.3245 32.3145 76.2758 30.2151 73.6881 30.2151V30.2151ZM73.6881 37.7289C72.1782 37.8399 70.8841 36.6244 70.7766 35.0772C70.6684 33.5301 71.8544 32.2042 73.3649 32.0939C74.8741 31.9829 76.1682 33.1984 76.2758 34.7456V34.9669C76.2758 36.4031 75.1973 37.7289 73.6874 37.7289H73.6881ZM61.7181 31.6513V33.6411H66.4633C66.3552 34.6353 66.0319 35.5192 65.3842 36.1824C64.4139 37.1767 63.1197 37.7289 61.8262 37.6186C59.0222 37.5083 56.8653 34.9669 56.9735 32.0939C57.081 29.4415 59.2379 27.1215 61.8262 27.1215C63.1204 27.1215 64.4146 27.5634 65.2767 28.5576L66.6784 27.2318C65.3842 25.9053 63.5511 25.2427 61.8262 25.2427C57.9437 25.022 54.709 28.226 54.4926 32.2042C54.2776 36.1824 57.4048 39.4967 61.2867 39.718H61.8262C63.6593 39.8284 65.4924 39.0548 66.7865 37.7289C68.0807 36.0714 68.7271 33.9727 68.4039 31.8726H61.7181V31.652V31.6513ZM110.675 33.1984C110.136 31.4306 108.518 30.3254 106.685 30.2151C104.313 30.2151 102.371 32.0939 102.371 34.6346V34.8559C102.264 37.3973 104.205 39.4967 106.685 39.607H106.901C108.411 39.607 109.921 38.8341 110.783 37.6186L109.165 36.5134C108.734 37.287 107.871 37.7289 106.901 37.7289C106.429 37.7302 105.967 37.5962 105.567 37.3422C105.166 37.0883 104.844 36.7246 104.637 36.2928L110.783 33.6404L110.675 33.1984V33.1984ZM104.421 34.7456C104.313 33.3094 105.391 32.0939 106.793 32.0939H106.901C107.656 31.9829 108.303 32.4255 108.627 33.0888L104.421 34.7456V34.7456ZM99.3524 39.2761H101.294V25.5743H99.3524V39.2761ZM96.1176 31.3203C95.3624 30.6571 94.5002 30.2151 93.5293 30.2151C90.941 30.3254 89.1086 32.5359 89.2161 35.1875C89.3236 37.6186 91.1573 39.4967 93.53 39.607C94.5002 39.607 95.3624 39.2761 96.0094 38.5025H96.1176V39.1658C96.3333 40.4916 95.4705 41.7071 94.1764 41.8175H93.745C92.6665 41.8175 91.8044 41.1542 91.373 40.16L89.6475 40.9336C90.2945 42.591 91.9119 43.6962 93.745 43.6962C96.1176 43.6962 98.0589 42.2594 98.0589 38.8341V30.5467H96.1176V31.3203V31.3203ZM93.745 37.7296C92.2358 37.6186 91.1567 36.2928 91.1567 34.7456C91.2648 33.3094 92.3433 32.0939 93.745 32.0939C95.1473 32.2042 96.3333 33.3094 96.2251 34.8559V34.9669C96.3333 36.5134 95.2548 37.7289 93.745 37.7289V37.7296ZM120.057 25.5743H115.204V39.2761H117.145V34.0823H119.949C122.214 34.3037 124.155 32.4255 124.37 30.1048C124.586 27.7841 122.753 25.7956 120.488 25.5743H120.056H120.057ZM120.057 32.2042H117.253V27.4531H120.057C121.351 27.4531 122.43 28.5576 122.43 29.7732C122.43 31.0997 121.459 32.2042 120.057 32.2042ZM132.673 30.2151C131.164 30.1048 129.762 30.9887 129.115 32.3145L130.949 33.0881C131.272 32.4249 132.026 31.9829 132.782 32.0932C133.86 31.9829 134.83 32.7565 134.939 33.8617V33.972C134.291 33.6404 133.536 33.4198 132.782 33.5301C130.949 33.5301 128.899 34.6353 128.899 36.6244C129.007 38.3922 130.409 39.718 132.242 39.6077H132.35C133.429 39.718 134.291 39.1658 134.939 38.2812H135.046V39.3864H136.987V34.0823C136.772 31.652 134.938 30.2151 132.673 30.2151V30.2151ZM132.35 37.7289C131.596 37.8399 130.949 37.3973 130.733 36.6244C130.733 35.5192 131.811 35.1875 132.89 35.1875C133.536 35.1875 134.184 35.4089 134.722 35.6295C134.615 36.845 133.536 37.7289 132.35 37.7289V37.7289ZM143.781 30.5467L141.408 36.4031L139.036 30.5467H136.879L140.438 38.8341L138.389 43.4749H140.546L146.153 30.5467H143.781V30.5467ZM125.664 39.2761H127.606V25.5743H125.664V39.2761Z" fill="white"/>
</g>
<defs>
<linearGradient id="paint0_linear" x1="33.5004" y1="40.6346" x2="12.0685" y2="35.0286" gradientUnits="userSpaceOnUse">
<stop stop-color="#4998D3"/>
<stop offset="0.01" stop-color="#4A99D3"/>
<stop offset="0.26" stop-color="#42BAEB"/>
<stop offset="0.51" stop-color="#41C7F2"/>
<stop offset="0.76" stop-color="#56C9E9"/>
<stop offset="1" stop-color="#5BCAE8"/>
</linearGradient>
<linearGradient id="paint1_linear" x1="46.5309" y1="28.3211" x2="20.4361" y2="28.3211" gradientUnits="userSpaceOnUse">
<stop stop-color="#FEE000"/>
<stop offset="0.41" stop-color="#FEBD11"/>
<stop offset="0.78" stop-color="#FAA51A"/>
<stop offset="1" stop-color="#F99B1C"/>
</linearGradient>
<linearGradient id="paint2_linear" x1="27.7972" y1="34.8684" x2="10.1487" y2="5.79073" gradientUnits="userSpaceOnUse">
<stop stop-color="#EF4149"/>
<stop offset="1" stop-color="#C31E63"/>
</linearGradient>
<linearGradient id="paint3_linear" x1="9.01745" y1="40.8936" x2="16.7137" y2="27.8462" gradientUnits="userSpaceOnUse">
<stop stop-color="#32A072"/>
<stop offset="0.07" stop-color="#2CA772"/>
<stop offset="0.48" stop-color="#4BBA71"/>
<stop offset="0.8" stop-color="#5EBD6B"/>
<stop offset="1" stop-color="#66BE69"/>
</linearGradient>
<clipPath id="clip0">
<rect width="126.098" height="30.4559" fill="white" transform="translate(20.4948 13.2998)"/>
</clipPath>
</defs>
</svg>
