<svg width="44" height="44" viewBox="0 0 44 44" fill="none" xmlns="http://www.w3.org/2000/svg">
<path d="M32.9335 42.2812H24.8556V30.187C31.8975 28.8474 37.2376 22.6491 37.2376 15.2276C37.2376 6.83109 30.4021 0 22.0001 0C13.598 0 6.76257 6.83109 6.76257 15.2276C6.76257 22.649 12.1026 28.8474 19.1445 30.187V42.2812H11.0666C10.5919 42.2812 10.2072 42.6661 10.2072 43.1406C10.2072 43.6152 10.5919 44 11.0666 44H32.9335C33.4081 44 33.7928 43.6152 33.7928 43.1406C33.7928 42.6661 33.4082 42.2812 32.9335 42.2812ZM8.48132 15.2276C8.48132 7.77889 14.5458 1.71875 22.0001 1.71875C29.4544 1.71875 35.5188 7.77889 35.5188 15.2276C35.5188 22.6763 29.4544 28.7365 22.0001 28.7365C14.5458 28.7365 8.48132 22.6764 8.48132 15.2276ZM20.8633 42.2812V30.4132C21.2387 30.441 21.6177 30.4552 22.0001 30.4552C22.3824 30.4552 22.7615 30.441 23.1368 30.4132V42.2812H20.8633Z" fill="white"/>
<path d="M33.4563 15.2276C33.4563 8.9161 28.3171 3.78125 22.0001 3.78125C15.6831 3.78125 10.5438 8.9161 10.5438 15.2276C10.5438 21.5391 15.6831 26.674 22.0001 26.674C28.3171 26.674 33.4563 21.5392 33.4563 15.2276ZM12.2626 15.2276C12.2626 9.86373 16.6308 5.5 22.0001 5.5C27.3694 5.5 31.7376 9.86373 31.7376 15.2276C31.7376 20.5914 27.3694 24.9551 22.0001 24.9551C16.6308 24.9551 12.2626 20.5914 12.2626 15.2276Z" fill="white"/>
<path d="M22.9758 16.9922C25.0023 16.9922 26.651 15.3678 26.651 13.3711C26.651 11.3745 25.0023 9.75 22.9758 9.75H20.2509C20.1953 9.75026 19.8751 9.75688 19.6273 10.0183C19.3997 10.2583 19.3918 10.546 19.3915 10.6093V20.3957C19.3915 20.8702 19.7763 21.2551 20.2509 21.2551C20.7255 21.2551 21.1103 20.8702 21.1103 20.3957V16.9994C21.7341 16.9961 22.5497 16.9922 22.9758 16.9922ZM22.9758 11.4687C24.0363 11.4687 24.9323 12.3399 24.9323 13.3711C24.9323 14.4022 24.0364 15.2735 22.9758 15.2735C22.5517 15.2735 21.7473 15.2773 21.1244 15.2807C21.1209 14.6401 21.1171 13.804 21.1171 13.3711C21.1171 13.005 21.1148 12.1356 21.1129 11.4687H22.9758Z" fill="white"/>
</svg>
