<svg width="38" height="35" viewBox="0 0 38 35" fill="none" xmlns="http://www.w3.org/2000/svg">
<path d="M19 4.10156V6.83594H16.0312V4.10156H19ZM16.0312 20.166V24.0625H19V20.166H16.0312ZM24.9375 35V32.2656H21.9688V29.5312H19V35H24.9375ZM30.875 14.6973H21.9688V17.4316H30.875V14.6973ZM30.875 20.166H35.0312V17.4316H30.875V20.166ZM30.875 24.0625V26.7969H38V20.166H35.0312V24.0625H30.875ZM21.9688 0H19V4.10156H21.9688V0ZM19 12.3047H21.9688V6.83594H19V9.57031H16.0312V17.4316H19V12.3047ZM0 14.6973V20.166H2.96875V17.4316H7.42188V14.6973H0ZM21.9688 20.166V17.4316H19V20.166H21.9688ZM27.9062 22.9004H30.875V20.166H27.9062V22.9004ZM35.0312 17.4316H38V14.6973H35.0312V17.4316ZM24.9375 20.166H21.9688V24.0625H19V26.7969H24.9375V20.166ZM16.0312 29.5312H19V26.7969H16.0312V29.5312ZM24.9375 26.7969V29.5312H30.875V26.7969H24.9375ZM33.8438 32.2656V29.5312H30.875V32.2656H33.8438ZM38 35V32.2656H33.8438V35H38ZM27.9062 35H30.875V32.2656H27.9062V35ZM13.3594 17.4316V14.6973H10.3906V17.4316H7.42188V20.166H16.0312V17.4316H13.3594ZM13.3594 12.3047H0V0H13.3594V12.3047ZM10.3906 2.73438H2.96875V9.57031H10.3906V2.73438ZM8.16406 4.78516H5.19531V7.51953H8.16406V4.78516ZM38 0V12.3047H24.6406V0H38ZM35.0312 2.73438H27.6094V9.57031H35.0312V2.73438ZM32.8047 4.78516H29.8359V7.51953H32.8047V4.78516ZM0 22.6953H13.3594V35H0V22.6953ZM2.96875 32.2656H10.3906V25.4297H2.96875V32.2656ZM5.19531 30.2148H8.16406V27.4805H5.19531V30.2148Z" fill="white"/>
</svg>
